<?xml version="1.0" encoding="utf-8"?>
<!-- Generator: Adobe Illustrator 24.1.3, SVG Export Plug-In . SVG Version: 6.00 Build 0)  -->
<svg version="1.1" id="Capa_1" xmlns="http://www.w3.org/2000/svg" xmlns:xlink="http://www.w3.org/1999/xlink" x="0px" y="0px"
	 viewBox="0 0 2000 2000" style="enable-background:new 0 0 2000 2000;" xml:space="preserve">
<style type="text/css">
	.st0{display:none;}
	.st1{display:inline;fill:#FFFFFF;}
	.st2{display:inline;}
	.st3{display:inline;fill:url(#SVGID_1_);}
	.st4{display:inline;fill:url(#SVGID_2_);}
	.st5{display:inline;fill:url(#SVGID_3_);}
	.st6{display:inline;fill:url(#SVGID_4_);}
	.st7{display:inline;fill:url(#SVGID_5_);}
	.st8{display:inline;fill:url(#SVGID_6_);}
	.st9{display:inline;fill:url(#SVGID_7_);}
	.st10{display:inline;fill:url(#SVGID_8_);}
	.st11{fill:#FFFFFF;}
	.st12{fill:url(#SVGID_9_);}
	.st13{fill:url(#SVGID_10_);}
	.st14{fill:url(#SVGID_11_);}
	.st15{fill:url(#SVGID_12_);}
	.st16{fill:url(#SVGID_13_);}
	.st17{fill:url(#SVGID_14_);}
	.st18{fill:url(#SVGID_15_);}
	.st19{fill:url(#SVGID_16_);}
</style>
<g class="st0">
	<rect class="st1" width="2000" height="2000"/>
	<g class="st2">
		<path d="M1711.32,620.95c0-4.99,0-9.98-0.01-14.97c-0.08-0.85-0.21-1.71-0.24-2.56c-0.06-1.68-0.04-3.36-0.11-5.04
			c-0.09-2.07-0.32-4.11-1.08-6.06c-1-2.57-2.76-4.35-5.38-5.24c-1.65-0.56-3.37-0.74-5.11-0.69c-0.46,0.01-0.91,0.03-1.2,0.52
			c0.18,0.12,0.28,0.23,0.41,0.28c4.17,1.83,6.45,5.14,7.38,9.48c0.57,2.68,0.79,5.41,0.75,8.15c-0.03,2.11-0.2,4.23-0.09,6.33
			c0.42,8.12-0.75,16.08-2.28,24c-0.09,0.45-0.26,1.09-0.59,1.25c-0.91,0.46-0.87,1.26-1.04,2.04c-0.22,1.03-0.42,2.07-0.77,3.06
			c-1.14,3.21-3.03,5.99-5.18,8.58c-1.4,1.69-3.38,2.32-5.53,2.3c-1.16-0.01-1.7-0.64-1.47-1.77c0.17-0.83,0.45-1.68,0.86-2.42
			c1.07-1.92,0.79-3.83-0.07-5.65c-0.84-1.78-1.76-3.5-1.86-5.45c-3.29-1.67-4.76-4.32-4.75-7.85c0-0.86-0.01-1.73,0-2.59
			c0.03-5.33,0.15-10.65-0.59-15.95c-0.59-4.28-1.25-8.54-2.59-12.67c-3.07-9.44-9.16-15.79-18.9-18.36
			c-0.23-0.06-0.46-0.12-0.69-0.2c-9.24-3.1-18.7-5.37-28.25-7.3c-10.11-2.04-20.28-3.71-30.51-5.03
			c-5.8-0.75-11.61-1.47-17.43-2.08c-5.82-0.61-11.65-1.07-17.48-1.55c-1.13-0.09-2.28-0.01-3.42-0.01
			c1.74,0.48,3.47,0.81,5.22,1.08c4.12,0.63,8.27,1.13,12.37,1.85c4.39,0.76,8.76,1.66,13.12,2.59c18.52,3.96,37.02,8,55.55,11.89
			c3.03,0.63,5.6,1.88,7.92,3.81c1.03,0.86,2.05,1.74,2.98,2.71c4.31,4.5,7.1,9.75,7.6,16.06c0.15,1.91,0.14,3.84,0.28,5.75
			c0.24,3.35,0.68,6.69,0.78,10.04c0.05,1.67-0.6,3.36,0.28,4.99c0.17,4.27,0.39,8.54-0.05,12.8c-0.05,0.46-0.18,0.94-0.36,1.37
			c-1.85,4.45-2.3,8.97-0.64,13.59c0.16,0.45,0.29,0.92,0.36,1.39c0.38,2.52-1.16,5.08-3.51,5.54c-3.81,0.76-7.63,1.44-11.46,2.05
			c-4.5,0.72-9.02,1.25-13.51,2.02c-3.92,0.67-7.79,1.66-11.71,2.31c-6.91,1.14-13.84,2.09-20.75,3.21
			c-5.3,0.86-10.57,1.87-15.86,2.81c-0.8,0.14-1.61,0.3-2.42,0.35c-2.92,0.18-3.47-0.39-3.41-3.31c0.03-1.33,0-2.66,0-4
			c-0.6,0.04-1.08,0.06-1.55,0.1c-2.14,0.2-4.33,0.23-6.42,0.67c-1.6,0.34-3.03,0.2-4.48-0.38c-1.46-0.59-2.76-1.37-3.18-3.05
			c-0.06-0.22-0.2-0.44-0.35-0.62c-1.48-1.81-1.72-4.02-2.03-6.2c-0.1-0.68,0.27-1.22,0.73-1.19c0.64,0.05,0.67,0.56,0.73,1.05
			c0.05,0.43,0.08,0.87,0.23,1.27c0.25,0.67,0.51,1.35,0.9,1.93c0.42,0.63,1,0.98,1.84,0.53c0.39-0.21,0.96-0.27,1.39-0.18
			c4.1,0.93,7.95-0.71,12.14-0.98c0-0.87,0.14-1.66-0.03-2.36c-0.28-1.1-0.65-2.22-1.19-3.21c-1.09-2.02-2.32-3.98-3.5-5.95
			c-0.25-0.41-0.52-0.81-0.84-1.16c-1.17-1.3-1.79-2.83-1.86-4.57c-0.07-1.77,0.03-3.56-0.13-5.32c-0.36-3.87-0.7-7.74-1.29-11.58
			c-1.06-6.87-2.55-13.67-4.6-20.32c-3.14-10.2-9.47-17.72-18.9-22.7c-6.99-3.68-14.35-6.16-22.18-7.21
			c-6.56-0.88-13.13-1.7-19.69-2.51c-2.13-0.26-4.22-0.85-6.4-0.74c-1,0.05-2.03,0.1-3.01-0.08c-4.21-0.76-8.48-0.91-12.73-1.29
			c-3.77-0.34-7.55-0.68-11.32-1.04c-4.78-0.46-9.57-0.61-14.36-0.46c-2.91,0.09-3.73-0.67-3.24-3.51c0.62-3.54,1.28-7.08,1.97-10.6
			c0.46-2.35,1.05-4.68,1.54-7.02c1.62-7.75,5.94-13.62,12.48-17.93c3.32-2.19,6.69-4.32,10.04-6.48c0.2-0.13,0.4-0.27,0.62-0.37
			c0.83-0.37,1.37-0.24,1.84,0.53c0.3,0.49,0.51,1.03,0.72,1.56c2.76,6.9,4.2,14.15,5.4,21.44c0.9,5.48,1.39,11.04,2.05,16.56
			c0.17,1.45,0.21,1.5,1.69,1.51c4.56,0.01,9.12,0.02,13.68,0.01c0.6,0,1.2-0.14,1.85-0.22c0-0.38,0.02-0.62,0-0.85
			c-0.94-8.96-3.34-17.49-7.24-25.62c-3.44-7.19-8.51-12.88-15.58-16.61c-3.55-1.87-7.31-3.36-10.97-5.04
			c-0.96-0.44-1.77-0.15-2.56,0.39c-4.75,3.25-8.96,7.06-12.3,11.79c-3.06,4.34-5,9.17-6.29,14.27c-1.31,5.21-2.43,10.46-3.79,15.65
			c-0.75,2.87-1.71,5.69-2.8,8.45c-1.04,2.64-3.05,4.13-6.05,3.95c-0.12-0.01-0.25,0.04-0.37,0.06c0.42,0.27,0.86,0.42,1.32,0.48
			c1.24,0.15,2.48,0.26,3.72,0.37c5.92,0.54,11.84,1.13,17.77,1.58c5.55,0.42,11.08,1.04,16.57,1.92c6.63,1.05,13.29,1.92,19.99,2.4
			c6.18,0.45,12.31,1.19,18.35,2.61c6.72,1.57,13.15,3.87,19.03,7.54c4.29,2.68,7.63,6.24,10.1,10.64c2.15,3.83,3.59,7.94,4.64,12.2
			c1.33,5.43,1.71,10.98,2.05,16.54c0.26,4.31,0.71,8.6,1.01,12.91c0.28,4.14,1.37,8.22,0.7,12.42c-0.2,1.27-0.16,2.59-0.4,3.86
			c-0.67,3.6-0.24,7.09,1.02,10.46c0.65,1.75,0.79,3.43,0.36,5.2c-0.16,0.65-0.27,1.32-0.39,1.98c-0.23,1.27-0.53,1.57-1.81,1.55
			c-3.57-0.06-7.09-0.46-10.48-1.62c-6.13-2.11-11-6.01-15.01-10.98c-2.38-2.95-4.65-6.01-6.65-9.22
			c-4.41-7.08-7.79-14.64-9.68-22.8c-0.59-2.56-0.95-5.19-1.32-7.8c-0.36-2.51-0.7-5.03-0.87-7.56c-0.31-4.79-0.59-9.58-1.45-14.31
			c-0.49-2.65-1.07-5.26-2.4-7.65c-0.47-0.84-1.12-1.34-2.03-1.7c-2.21-0.87-4.53-1.16-6.83-1.66c-12.43-2.66-24.9-5.06-37.49-6.86
			c-8.45-1.21-16.91-2.35-25.39-3.3c-7.1-0.79-14.23-1.32-21.36-1.85c-11.06-0.83-22.13-1.14-33.22-1.09
			c-2.58,0.01-5.01,0.59-7.45,1.22c-2.32,0.6-3.73,2.14-4.06,4.52c-0.27,1.9-0.51,3.81-0.55,5.72c-0.15,6.66,0.28,13.34-0.7,19.97
			c0.28,2.86,0.57,5.72,0.84,8.58c0.45,4.87,1.15,9.74,1.27,14.61c0.22,9.64,0.16,19.29,0.12,28.93
			c-0.04,10.46-0.23,20.92-0.29,31.38c-0.1,19.58-0.18,39.16-0.22,58.74c-0.04,16.43-0.11,32.86,0.04,49.29
			c0.02,0.17,0.03,0.34,0.03,0.52v65.52c0.31,0.72,0.64,1.43,0.98,2.14c0.44,0.91,0.83,1.84,1.38,2.68c0.28,0.44,0.8,0.91,1.29,1
			c4.22,0.84,7.92,2.83,11.53,5.04c8.01,4.91,16.03,9.81,24.02,14.77c12.81,7.95,25.63,15.91,38.48,23.79c0.65,0.08,1.32,0.32,2,0.8
			c9.02,6.29,18.7,10.59,29.83,10.74c3.33,0.04,6.64-0.18,9.95-0.55c2.54-1.29,5.01-2.78,7.39-4.5c0.08-2.96,0.17-5.93,0.24-8.88
			c0.25-9.45,0.5-18.9,0.74-28.35c0.34-13.52,0.67-27.04,1.02-40.56c0.05-2.01,0.21-4.02,0.25-6.03
			c0.23-10.17,0.41-20.34,0.66-30.51c0.45-18.42,0.93-36.84,1.41-55.25c0.34-13.33,0.68-26.67,1.06-40
			c0.23-8.06,0.54-16.11,0.8-24.16c0.01-0.42-0.04-0.86-0.12-1.28c-0.38-2-0.39-3.99-0.22-6.02c0.38-4.3,0.73-8.6,0.96-12.9
			c0.14-2.68,0.1-5.38,0.01-8.06c-0.05-1.42,0.88-2,2.13-1.69c0.46,0.11,0.91,0.33,1.31,0.58c1.21,0.78,2.47,1.51,3.55,2.45
			c1.52,1.31,3.12,2.61,4.29,4.21c2.6,3.57,5.23,7.11,8.19,10.4c7.55,8.39,16.1,15.49,26.25,20.55c0.25,0.12,0.46,0.3,0.72,0.47
			c-0.23,4.65-0.45,9.25-0.69,13.84c-0.45,8.67-0.91,17.34-1.36,26.02c-0.22,4.12-0.4,8.24-0.65,12.36
			c-0.42,6.61-0.89,13.21-1.33,19.82c-0.32,4.79-0.63,9.57-0.95,14.36c-0.43,6.46-0.88,12.92-1.31,19.39
			c-0.33,4.88-0.63,9.77-0.96,14.65c-0.43,6.37-0.88,12.73-1.31,19.1c-0.42,6.27-0.79,12.55-1.26,18.81
			c-0.68,8.94-1.43,17.88-2.19,26.82c-0.49,5.79-1.33,11.53-2.64,17.19c-1.49,6.42-4.11,12.26-8.77,17.05
			c-0.1,0.1-0.25,0.2-0.28,0.32c-0.06,0.26-0.15,0.6-0.03,0.79c0.11,0.18,0.46,0.27,0.71,0.29c0.23,0.02,0.47-0.08,0.7-0.14
			c6.36-1.72,12.25-4.43,17.56-8.37c0.6-0.44,1.04-0.94,1.31-1.65c1.09-2.77,2.2-5.52,3.34-8.27c3.63-8.79,5.85-17.94,6.85-27.39
			c0.32-3.05,0.65-6.11,1.12-9.14c0.48-3.17,1.17-6.32,1.7-9.49c1.52-9.03,3.05-18.06,4.47-27.11c1.07-6.82,2.04-13.66,2.94-20.51
			c0.89-6.8,1.71-13.61,2.41-20.43c0.73-7.11,1.36-14.23,1.88-21.36c0.52-7.18,0.75-14.37,0.63-21.58
			c-0.01-0.37,0.06-0.74,0.09-1.14c1.43-0.3,2.73-0.15,4,0.39c0.99,0.42,1.63,1.17,1.89,2.21c0.34,1.4,0.7,2.79,1,4.19
			c0.61,2.92,1.42,5.77,2.57,8.52c2.34,5.62,5.71,10.41,10.87,13.81c4.55,2.99,9.49,4.72,14.99,4.81
			c5.26,0.09,10.45-0.52,15.56-1.67c5.28-1.19,10.51-2.64,15.8-3.8c7.72-1.7,15.48-3.26,23.22-4.86c1.25-0.26,1.92,0.3,1.97,1.6
			c0.02,0.48-0.02,0.96-0.08,1.44c-0.31,2.72-0.64,5.43-0.96,8.14c-0.72,6.05-1.46,12.09-2.17,18.14
			c-0.72,6.14-1.43,12.29-2.12,18.44c-0.74,6.53-1.48,13.06-2.17,19.59c-0.51,4.83-1.33,9.59-2.72,14.25
			c-2.63,8.76-6.68,16.93-10.56,25.18c-0.22,0.47-0.58,0.88-0.81,1.36c-0.19,0.38-0.37,0.8-0.39,1.21
			c-0.04,0.91,0.51,1.32,1.37,1.04c1.87-0.62,3.72-1.26,5.57-1.92c1.16-0.41,2.03-1.16,2.8-2.15c7.42-9.63,11.59-20.61,13.31-32.53
			c0.94-6.5,1.38-13.06,2.01-19.6c0.92-9.69,1.79-19.39,2.71-29.08c0.8-8.31,1.67-16.61,2.45-24.92c0.13-1.37,0.66-2.34,1.8-3.08
			c1.04-0.68,2.08-1.38,3.04-2.18c3.77-3.16,5.47-7.14,4.81-12.11c-0.55-4.09-1.81-7.92-3.74-11.56c-0.58-1.09-1.09-2.25-1.44-3.44
			c-0.78-2.61-0.84-5.29-0.55-7.99c0.26-2.43,0.61-4.86,0.81-7.29c0.16-1.86,0.16-3.74,0.22-5.61c0.05-1.3,0.43-2.44,1.82-2.77
			c1.77-0.42,2.4-1.81,2.04-3.68c-0.4-2.12-0.78-4.24-1.18-6.36c-0.56-3.02-1.09-6.04-1.03-9.13c0.03-1.36,0.56-2.33,1.9-2.72
			c2.16-0.63,3.34-2.16,3.9-4.23c0.33-1.25,0.68-2.51,0.83-3.79c0.46-3.86,0.82-7.72,1.26-11.58c0.12-1.09,0.13-2.09-0.63-2.98
			c-0.51-0.6-0.35-1.16,0.24-1.61c1.69-1.26,3.37-2.54,5.1-3.75c0.64-0.45,1.1-0.2,1.21,0.58c0.1,0.71,0.09,1.44,0.09,2.15
			c0.09,9.65-0.3,19.29-0.96,28.91c-0.26,3.83-0.64,7.65-1.01,11.47c-0.4,4.11-0.9,8.2-1.27,12.31c-0.36,4.06-0.64,8.13-0.91,12.2
			c-0.47,7.09-0.92,14.17-1.33,21.26c-0.34,5.8-0.61,11.6-0.94,17.39c-0.51,8.76-1.03,17.53-1.6,26.29
			c-0.37,5.7-0.8,11.39-1.25,17.08c-0.6,7.51-1.32,15.01-1.86,22.52c-0.63,8.79-2.15,17.4-4.55,25.88
			c-0.75,2.65-1.56,5.23-3.59,7.25c-0.33,0.33-0.55,0.78-0.77,1.21c-0.13,0.26-0.16,0.58-0.24,0.91c0.26,0.03,0.4,0.07,0.54,0.07
			c4.02-0.06,6.87-1.97,8.46-5.61c0.86-1.97,1.51-4.04,2.11-6.11c1.42-4.92,1.65-10.02,1.97-15.09c0.41-6.51,0.85-13.02,1.28-19.53
			c0.45-6.8,0.9-13.6,1.33-20.39c0.33-5.22,0.63-10.44,0.95-15.66c0.45-7.33,0.91-14.65,1.35-21.98c0.32-5.36,0.62-10.73,0.93-16.09
			c0.45-7.71,0.91-15.42,1.35-23.13c0.32-5.46,0.61-10.92,0.93-16.38c0.52-8.62,1.07-17.24,1.58-25.86
			c0.44-7.28,0.84-14.56,1.26-21.84c0.03-0.57,0.15-1.15,0.13-1.72c-0.08-2.96,0.81-5.62,2.19-8.23c3.88-7.31,6.23-15.04,5.99-23.43
			C1711.07,622.67,1711.24,621.81,1711.32,620.95z M1499.83,664.94c-0.09,3.26-0.29,6.52-0.52,9.77c-0.31,4.5-0.68,8.99-1.03,13.49
			c-0.45,5.93-0.9,11.86-1.34,17.8c-0.42,5.6-0.82,11.2-1.24,16.79c-0.44,5.84-0.89,11.67-1.32,17.51
			c-0.32,4.31-0.64,8.61-0.96,12.92c-0.44,5.88-0.89,11.77-1.33,17.65c-0.33,4.35-0.64,8.71-0.96,13.06
			c-0.53,7.08-1.08,14.16-1.61,21.24c-0.42,5.65-0.83,11.29-1.26,16.94c-0.43,5.79-0.88,11.58-1.32,17.36
			c-0.32,4.31-0.63,8.61-0.96,12.92c-0.54,7.18-1.09,14.35-1.63,21.53c-0.4,5.36-0.8,10.72-1.2,16.07
			c-0.49,6.6-0.97,13.2-1.48,19.81c-0.08,0.99-0.26,1.98-0.42,3.17c-0.56-0.32-1.02-0.56-1.46-0.83
			c-30.24-18.22-60.48-36.45-90.74-54.63c-1.03-0.62-1.28-1.31-1.28-2.41c0-50.25-0.03-100.49-0.06-150.74
			c-0.01-19.53-0.02-39.06-0.03-58.6c0-1.97-0.02-3.93-0.53-5.86c-0.08-0.32-0.1-0.67-0.07-1c0.06-0.79,0.45-1.13,1.23-1.05
			c0.37,0.04,0.76,0.16,1.1,0.32c4.12,1.95,8.51,3.01,12.98,3.59c8.8,1.16,17.49,2.96,26.18,4.7c8.41,1.68,16.86,3.23,25.29,4.83
			c9.32,1.78,18.65,3.55,27.97,5.35c2.98,0.57,5.95,1.13,8.99,0.72c1.61-0.21,3.21-0.57,4.8-0.91c1.79-0.39,2.57-0.02,3.22,1.7
			C1499.65,660.33,1499.89,662.63,1499.83,664.94z M1500.37,604.91c-1.45,12.31-4.17,24.38-6.86,36.45
			c-0.32,1.45-0.67,2.9-1.01,4.34c-0.09,0.36-0.22,0.71-0.36,1.16c-2.47-0.39-4.88-0.76-7.28-1.15c-8.71-1.4-17.42-2.79-26.13-4.22
			c-7.62-1.25-15.22-2.61-22.84-3.83c-7.95-1.27-15.93-2.39-23.89-3.65c-5.02-0.79-10.03-1.62-15.02-2.58
			c-3.11-0.6-5.86-2.08-8.33-4.07c-0.68-0.55-1.01-1.13-1.01-2.06c0.03-13.87,0.01-27.74,0-41.61c0-1.59,0.34-1.93,1.98-1.79
			c1.91,0.17,3.81,0.46,5.72,0.66c4.29,0.45,8.58,0.95,12.88,1.31c8.56,0.7,17.06,1.82,25.49,3.53c5.59,1.13,11.23,2.01,16.88,2.82
			c6.74,0.97,13.51,1.7,20.26,2.62c3.85,0.52,7.66,1.28,11.51,1.8c2.66,0.36,5.34,0.57,8.02,0.74c2.72,0.17,5.46,0.2,8.19,0.3
			c1.66,0.06,1.77,0.16,2.03,1.76C1501.01,599.96,1500.66,602.44,1500.37,604.91z M1573.56,679.25c0.81-1.05,1.51-2.18,2.39-3.47
			c0.18,2.89-1.72,5.41-5.06,6.6C1571.9,681.21,1572.78,680.27,1573.56,679.25z M1573.68,740.33c-0.65,7.93-1.26,15.87-2.02,23.8
			c-0.47,4.87-1.2,9.71-1.76,14.57c-0.28,2.38-0.42,4.78-0.65,7.16c-0.42,4.34-0.77,8.69-1.32,13.02
			c-0.63,5.01-0.92,10.02-1.07,15.06c-0.08,2.72-0.5,5.43-0.81,8.14c-0.05,0.47-0.3,0.93-0.45,1.39c-0.09-0.02-0.19-0.04-0.28-0.06
			c-0.02-0.17-0.06-0.33-0.06-0.5c0-5.23,0.02-10.46,0.02-15.68c0-5.71,0.3-11.39,1.13-17.06c0.59-4.06,0.55-8.22,0.74-12.34
			c0.1-2.2-0.01-4.42,0.17-6.62c0.23-2.91,0.6-5.81,1.01-8.7c0.74-5.23,1.06-10.5,1.12-15.78c0.03-2.3,0.04-4.61,0.06-6.91
			c0-0.19-0.01-0.38,0.01-0.58c0.08-1.37,0.44-1.88,1.4-2c1.29-0.16,2.37,0.49,2.67,1.66
			C1573.69,739.36,1573.72,739.86,1573.68,740.33z M1572.66,692.51c-0.03-0.78,0.48-1.34,1.46-1.47c0.8-0.11,1.63-0.1,2.44-0.1
			c1.49-0.01,2.97-0.02,4.46,0.04c0.94,0.04,1.4,0.5,1.45,1.27c0.06,0.84-0.38,1.47-1.34,1.55c-1.24,0.1-2.49,0.03-3.73,0.03
			c0,0.01,0,0.02,0,0.04c-1.05,0-2.11,0.05-3.16-0.01C1573.19,693.79,1572.69,693.31,1572.66,692.51z M1670.59,754.23
			c-5.16,0.84-10.31,1.74-15.47,2.53c-6.88,1.06-13.63,2.72-20.4,4.31c-5.89,1.39-11.87,2.23-17.87,2.97
			c-3.94,0.49-7.86,0.15-11.65-1.13c-5.52-1.87-9.22-5.64-10.99-11.14c-1.16-3.6-1.96-7.31-2.89-10.98
			c-0.41-1.63-0.74-3.27-1.15-4.9c-1.27-5.07-5.16-7.68-10.31-6.95c-0.33,0.05-0.67,0.09-1,0.14c-1.69,0.24-2.38-0.21-2.78-1.9
			c-0.59-2.49-0.79-5.02-0.76-7.57c0.05-3.9,0.72-7.73,1.59-11.52c0.37-1.62,0.83-2.03,2.51-2.29c0.85-0.13,1.72-0.18,2.56-0.36
			c3.91-0.82,5.67-2.83,6.01-6.8c0.11-1.32,0.36-2.65,0.34-3.97c-0.02-1.82-0.19-3.64-0.38-5.45c-0.1-0.95,0.08-1.75,0.5-2.61
			c0.48-0.97,0.8-2.05,0.99-3.11c0.21-1.16,0.1-1.21,1.32-1.45c2.02-0.4,4.04-0.83,6.08-1.11c11.59-1.59,23.18-3.19,34.79-4.7
			c9.8-1.27,19.61-2.43,29.41-3.63c1.34-0.17,1.71,0.08,1.91,1.45c0.97,6.45,1.93,12.9,2.9,19.35c1,6.73,2.01,13.47,3.01,20.2
			c1.01,6.73,2.03,13.47,3.03,20.2c0.92,6.17,1.83,12.33,2.75,18.5c0.06,0.41,0.09,0.83,0.14,1.34
			C1673.32,753.85,1671.95,754.01,1670.59,754.23z M1679.38,663.43c0.08,0.38,0.22,0.64,0.14,0.74c-0.81,1.04-1.66,2.06-2.49,3.08
			C1676.63,665.24,1678.32,664.71,1679.38,663.43z M1684.98,674.33c-0.08,0.05-0.17,0.09-0.26,0.12c-2.07,0.61-4.15,1.15-6.33,0.65
			c-0.14-0.03-0.28-0.06-0.41-0.12c-0.08-0.04-0.14-0.12-0.35-0.3c0.84-0.93,1.81-1.53,2.9-1.9c1.17-0.4,2.37-0.72,3.57-1.03
			c0.85-0.22,1.31,0,1.55,0.59C1685.95,673.1,1685.66,673.95,1684.98,674.33z M1688.73,645.7c-1.01-0.06-1.7,0.35-2.33,1.14
			c-1.18,1.47-2.8,1.76-4.64,1.06c-0.92-0.35-1.85-0.41-2.82-0.17c-2.58,0.63-3.3-0.49-3.89-2.33c-0.12-0.36-0.19-0.75-0.22-1.13
			c-0.11-1.18-0.19-2.35-0.29-3.66c1.03,0.55,1.35,1.44,1.6,2.36c0.14,0.51,0.19,1.04,0.32,1.54c0.45,1.69,1.47,2.32,3.24,2
			c2.16-0.39,4.32-0.82,6.49-1.22c0.66-0.12,1.32-0.27,1.98-0.32c0.22-0.02,0.46,0.23,0.69,0.35L1688.73,645.7z"/>
		<g>
			<path d="M1424.69,789.7c-0.3-0.15-0.59-0.31-0.89-0.45c-1.11-0.51-2.16-1.12-3.1-1.89c-1.31-1.08-2.22-2.44-2.8-4.03
				c-0.7-1.94-0.89-3.94-0.81-5.98c0.09-2.31,0.87-4.39,2.11-6.31c0.81-1.26,1.77-2.4,2.77-3.52c3.19-3.57,6.17-7.3,9.03-11.14
				c0.94-1.25,1.94-2.45,3.11-3.5c1.61-1.46,3.44-2.51,5.59-2.93c2.26-0.44,4.5-0.33,6.68,0.45c1.8,0.64,3.28,1.75,4.48,3.23
				c0.86,1.05,1.58,2.2,2.32,3.33c0.92,1.38,1.84,2.76,2.9,4.03c1.35,1.61,2.91,2.97,4.76,3.99c0.76,0.42,1.54,0.81,2.26,1.28
				c2.82,1.85,4.68,4.41,5.57,7.66c0.35,1.27,0.66,2.56,0.83,3.87c0.1,0.77,0.2,1.54,0.08,2.32c-0.03,0.19-0.05,0.38-0.08,0.57
				c-0.07,0.22-0.15,0.44-0.22,0.66c-0.05,0.08-0.11,0.15-0.15,0.23c-0.22,0.6-0.58,1.11-0.98,1.59c-1.22,1.48-2.71,2.63-4.46,3.41
				c-1.45,0.65-2.95,1.11-4.54,1.2c-1.02,0.06-2.03-0.07-3.04-0.2c-2.86-0.39-5.71-0.77-8.57-1.16c-2.21-0.3-4.41-0.22-6.59,0.27
				c-1.78,0.4-3.42,1.13-4.98,2.07c-2.87,1.73-5.94,2.26-9.22,1.53c-0.25-0.05-0.5-0.08-0.74-0.13
				C1425.56,790,1425.13,789.85,1424.69,789.7z"/>
			<path d="M1415.33,734.48c0.08-0.09,0.18-0.18,0.23-0.28c0.39-0.75,0.76-1.51,1.15-2.26c0.09-0.17,0.22-0.32,0.37-0.45
				c0.19-0.17,0.35-0.15,0.5,0.05c0.08,0.11,0.14,0.24,0.2,0.36c0.75,1.54,1.24,3.17,1.63,4.83c0.09,0.39,0,0.59-0.37,0.76
				c-1.14,0.53-2.33,0.76-3.58,0.53c-0.53-0.09-0.73-0.29-0.65-0.83c0.08-0.62,0.24-1.22,0.36-1.84c0.05-0.25,0.07-0.49,0.11-0.74
				C1415.3,734.57,1415.32,734.53,1415.33,734.48z"/>
			<path d="M1445.55,709.9c0.12,0.09,0.24,0.18,0.36,0.26c1.29,0.89,2.4,1.96,3.28,3.26c0.12,0.17,0.22,0.36,0.3,0.55
				c0.09,0.22,0.03,0.35-0.19,0.45c-0.13,0.06-0.28,0.1-0.43,0.14c-0.65,0.15-1.31,0.1-1.96-0.01c-0.22-0.04-0.43-0.09-0.65-0.14
				c-0.41-0.1-0.72-0.33-0.91-0.69c-0.54-1.02-0.78-2.1-0.65-3.25c0.01-0.06,0.03-0.11,0.04-0.17c0.07-0.29,0.23-0.47,0.54-0.49
				C1445.38,709.84,1445.46,709.87,1445.55,709.9z"/>
			<path d="M1475.05,756.36c-0.85,2.46-2.43,4.37-4.51,5.88c-0.99,0.72-2.1,1.21-3.29,1.52c-2.02,0.52-3.95,0.28-5.8-0.65
				c-1.52-0.76-2.81-1.78-3.81-3.16c-1.37-1.88-1.86-3.98-1.54-6.28c0.27-1.9,0.74-3.75,1.33-5.57c0.55-1.7,1.15-3.38,1.72-5.07
				c0.58-1.72,1.38-3.34,2.36-4.86c0.37-0.57,0.76-1.13,1.18-1.67c0.88-1.12,2.03-1.42,3.38-1.06c1.35,0.37,2.54,1.02,3.46,2.09
				c1.05,1.22,2.1,2.45,2.98,3.79c1.18,1.79,2.07,3.72,2.74,5.76c0.38,1.16,0.56,2.36,0.56,3.59c0,1.75-0.1,3.5-0.59,5.19
				C1475.17,756.03,1475.11,756.19,1475.05,756.36z"/>
			<path d="M1458.34,737.2c-1.27,3.01-3.33,5.39-6.57,6.58c-1.69,0.62-3.38,0.56-5.04-0.17c-1.63-0.72-2.76-1.95-3.57-3.51
				c-0.88-1.69-1.19-3.5-1.17-5.38c0.03-3.48,0.08-6.97,0.13-10.45c0.02-1.37,0.06-2.73,0.11-4.1c0.02-0.59,0.13-1.17,0.32-1.74
				c0.32-0.93,0.86-1.68,1.73-2.17c1.06-0.6,2.17-0.93,3.39-0.68c0.54,0.11,1.04,0.31,1.53,0.56c0.81,0.4,1.59,0.85,2.29,1.43
				c0.44,0.36,0.83,0.77,1.18,1.22c1.1,1.45,1.99,3.02,2.81,4.63c0.99,1.94,1.83,3.95,2.53,6.02c0.59,1.75,0.9,3.54,0.78,5.4
				c-0.03,0.4-0.08,0.81-0.16,1.2C1458.58,736.4,1458.46,736.74,1458.34,737.2z"/>
			<path d="M1438.45,739.37c-0.4,1.23-1.05,2.27-2.03,3.08c-1.48,1.23-3.18,1.64-5.07,1.32c-2.08-0.36-3.78-1.42-5.24-2.88
				c-2.51-2.5-3.77-5.59-4.03-9.1c-0.14-1.82,0.1-3.61,0.71-5.33c0.39-1.11,0.92-2.16,1.68-3.06c1.26-1.5,2.54-2.98,3.83-4.44
				c0.68-0.77,1.45-1.43,2.31-1.99c0.49-0.32,0.99-0.6,1.55-0.78c1.33-0.44,2.47-0.07,3.31,1.06c0.42,0.57,0.69,1.2,0.92,1.86
				c0.16,0.45,0.31,0.9,0.42,1.36c0.74,3.04,1.41,6.09,1.88,9.19c0.36,2.39,0.47,4.79,0.27,7.2
				C1438.88,737.72,1438.73,738.57,1438.45,739.37z"/>
			<path d="M1411.77,746.55c0.53-1.62,1.56-3.56,2.8-5.4c0.3-0.44,0.6-0.88,0.92-1.3c0.27-0.36,0.59-0.66,0.98-0.87
				c1.03-0.56,2.05-0.48,3.03,0.13c0.79,0.49,1.49,1.09,2.15,1.75c1.56,1.54,2.98,3.21,4.21,5.03c0.36,0.54,0.72,1.1,0.94,1.7
				c0.45,1.25,0.97,2.48,1.26,3.79c0.33,1.48,0.46,2.97,0.2,4.48c-0.39,2.24-1.41,4.15-3.04,5.73c-1.12,1.09-2.38,1.96-3.87,2.46
				c-1.94,0.66-3.81,0.48-5.6-0.52c-0.57-0.32-1.17-0.62-1.7-1c-1.34-0.98-2.22-2.31-2.78-3.86c-0.59-1.61-0.78-3.28-0.79-4.98
				C1410.45,751.4,1410.85,749.18,1411.77,746.55z"/>
			<path d="M1463.29,729.84c0.21-0.65,0.38-0.71,0.92-0.34c1.08,0.75,1.93,1.72,2.69,2.77c0.22,0.31,0.43,0.63,0.63,0.96
				c0.21,0.35,0.14,0.53-0.25,0.64c-0.24,0.07-0.5,0.12-0.75,0.15c-0.98,0.13-1.96,0.09-2.94,0c-0.4-0.04-0.53-0.17-0.58-0.57
				C1462.86,732.23,1462.96,731.02,1463.29,729.84z"/>
			<path d="M1431.69,715.03c-0.23-0.08-0.29-0.19-0.25-0.41c0.02-0.08,0.04-0.16,0.08-0.23c0.65-1.13,1.3-2.27,1.97-3.39
				c0.17-0.29,0.39-0.54,0.59-0.81c0.07-0.09,0.15-0.18,0.24-0.25c0.19-0.15,0.34-0.13,0.47,0.07c0.07,0.11,0.12,0.23,0.16,0.35
				c0.26,0.88,0.55,1.75,0.76,2.64c0.11,0.45,0.08,0.94,0.1,1.41c0.01,0.28-0.17,0.45-0.42,0.52c-0.2,0.06-0.41,0.09-0.61,0.12
				c-0.96,0.14-1.91,0.13-2.87,0.03C1431.82,715.06,1431.74,715.04,1431.69,715.03z"/>
		</g>
	</g>
	<path class="st2" d="M559.77,820.44l21.15,46.44c-28.9,26.83-70.68,40.75-108.35,40.75C373,907.63,292,828.18,292,730.15
		c0-98.02,81-177.47,180.57-177.47c37.66,0,79.45,13.41,108.35,40.24l-21.15,46.43c-23.74-24.24-51.08-37.14-90.29-37.14
		c-70.68,0-127.95,57.27-127.95,127.95S398.8,858.1,469.48,858.1C508.69,858.1,536.03,845.2,559.77,820.44z"/>
	<path class="st2" d="M613.78,556.8h49.52v346.7h-49.52V556.8z M691.57,903.51v-49.53h112.07v49.53H691.57z"/>
	<path class="st2" d="M1071.57,556.8V750.8c0,91.32-41.28,156.84-132.08,156.84c-92.86,0-132.07-65.53-132.07-156.84V556.8h49.53
		v210.5c0,53.66,30.44,90.8,82.54,90.8c51.59,0,82.55-37.14,82.55-90.8V556.8H1071.57z"/>
	<path class="st2" d="M1351,799.29c0,59.85-41.79,104.22-111.44,104.22h-127.95v-49.54h119.7c42.82,0,70.17-17.54,70.17-55.72
		c0-38.18-27.34-55.72-70.17-55.72h-119.7v-49.53h111.44c39.21,0,61.91-13.41,61.91-43.34c0-29.41-22.7-43.34-61.91-43.34h-111.44
		V556.8h103.7c74.81,0,119.18,30.96,119.18,90.81c0,34.57-18.57,60.87-41.28,69.64C1333.97,727.06,1351,764.72,1351,799.29z"/>
	<linearGradient id="SVGID_1_" gradientUnits="userSpaceOnUse" x1="292.9822" y1="1074.4163" x2="504.8404" y2="1074.4163">
		<stop  offset="0" style="stop-color:#E6E6E6"/>
		<stop  offset="0.9996" style="stop-color:#999999"/>
	</linearGradient>
	<path class="st3" d="M504.84,1074.41c0,72.44-48.29,130.86-133.58,130.86h-78.28v-37.39H381c51.02,0,86.46-41.68,86.46-93.47
		s-35.44-93.47-86.46-93.47h-88.01v-37.39h78.28C458.5,943.56,504.84,1001.98,504.84,1074.41z"/>
	<linearGradient id="SVGID_2_" gradientUnits="userSpaceOnUse" x1="518.0269" y1="1074.4163" x2="667.574" y2="1074.4163">
		<stop  offset="0" style="stop-color:#E6E6E6"/>
		<stop  offset="0.9996" style="stop-color:#999999"/>
	</linearGradient>
	<path class="st4" d="M667.57,943.56v37.39H518.03v-37.39H667.57z M518.03,1093.11v-36.85h130.85v36.85H518.03z M555.41,1167.88
		h112.16v37.39H518.03v-37.52h37.39V1167.88z"/>
	<linearGradient id="SVGID_3_" gradientUnits="userSpaceOnUse" x1="683.0342" y1="1074.4163" x2="826.3493" y2="1074.4163">
		<stop  offset="0" style="stop-color:#E6E6E6"/>
		<stop  offset="0.9996" style="stop-color:#999999"/>
	</linearGradient>
	<path class="st5" d="M683.03,943.56h37.38v261.71h-37.38V943.56z M741.75,1205.27v-37.39h84.59v37.39H741.75z"/>
	<linearGradient id="SVGID_4_" gradientUnits="userSpaceOnUse" x1="846.4066" y1="1074.4163" x2="883.7955" y2="1074.4163">
		<stop  offset="0" style="stop-color:#E6E6E6"/>
		<stop  offset="0.9996" style="stop-color:#999999"/>
	</linearGradient>
	<path class="st6" d="M846.41,1205.27V943.56h37.39v261.71H846.41z"/>
	<linearGradient id="SVGID_5_" gradientUnits="userSpaceOnUse" x1="900.5558" y1="1077.5337" x2="1137.339" y2="1077.5337">
		<stop  offset="0" style="stop-color:#E6E6E6"/>
		<stop  offset="0.9996" style="stop-color:#999999"/>
	</linearGradient>
	<path class="st7" d="M1019.02,1123.31l19.27,44.42l-19.34,43.77L900.56,943.56h40.5l77.89,179.92L1019.02,1123.31z M1137.34,943.56
		l-87.72,198.52l-19.44-44.53l66.66-153.99H1137.34z"/>
	<linearGradient id="SVGID_6_" gradientUnits="userSpaceOnUse" x1="1150.0599" y1="1074.4163" x2="1299.6071" y2="1074.4163">
		<stop  offset="0" style="stop-color:#E6E6E6"/>
		<stop  offset="0.9996" style="stop-color:#999999"/>
	</linearGradient>
	<path class="st8" d="M1299.61,943.56v37.39h-149.55v-37.39H1299.61z M1150.06,1093.11v-36.85h130.85v36.85H1150.06z
		 M1187.45,1167.88h112.16v37.39h-149.55v-37.52h37.39V1167.88z"/>
	<linearGradient id="SVGID_7_" gradientUnits="userSpaceOnUse" x1="1317.6393" y1="1074.4135" x2="1504.5753" y2="1074.4135">
		<stop  offset="0" style="stop-color:#E6E6E6"/>
		<stop  offset="0.9996" style="stop-color:#999999"/>
	</linearGradient>
	<path class="st9" d="M1504.58,1205.27h-43.62l-65.04-90.35h-40.89v90.35h-37.39v-127.74h93.08c27.26,0,50.24-14.02,50.24-47.9
		c0-34.27-22.2-48.68-49.46-48.68h-93.86v-37.39h81c68.15,0,99.7,34.27,99.7,83.73c0,40.51-22.2,73.6-61.15,84.12L1504.58,1205.27z"
		/>
	<linearGradient id="SVGID_8_" gradientUnits="userSpaceOnUse" x1="1487.675" y1="1074.4163" x2="1712" y2="1074.4163">
		<stop  offset="0" style="stop-color:#E6E6E6"/>
		<stop  offset="0.9996" style="stop-color:#999999"/>
	</linearGradient>
	<path class="st10" d="M1529.74,943.56l88.79,155.78v105.93h-37.39v-105.93l-93.47-155.78H1529.74z M1712,943.56l-81.94,136.56
		l-19.78-34.49l59.66-102.07H1712z"/>
	<g class="st2">
		<path d="M331.47,1380.76c-1.5,1.14-3.11,2.13-4.83,2.97c-1.72,0.84-3.61,1.47-5.67,1.9c-2.05,0.43-4.32,0.65-6.81,0.65
			c-3.9,0-7.5-0.71-10.8-2.13c-3.3-1.42-6.15-3.36-8.56-5.82c-2.41-2.46-4.3-5.36-5.67-8.71c-1.37-3.35-2.05-6.94-2.05-10.8
			c0-3.8,0.67-7.38,2.01-10.72c1.34-3.35,3.23-6.27,5.67-8.78c2.43-2.51,5.32-4.49,8.67-5.93c3.35-1.45,7.05-2.17,11.1-2.17
			c2.43,0,4.65,0.2,6.65,0.61c2,0.41,3.84,0.98,5.51,1.71c1.67,0.74,3.22,1.61,4.64,2.62c1.42,1.01,2.76,2.13,4.03,3.35l-6.01,6.92
			c-2.13-1.98-4.39-3.57-6.77-4.79c-2.38-1.22-5.1-1.82-8.14-1.82c-2.54,0-4.88,0.49-7.03,1.48c-2.16,0.99-4.02,2.33-5.59,4.03
			c-1.57,1.7-2.79,3.69-3.65,5.97c-0.86,2.28-1.29,4.74-1.29,7.38c0,2.64,0.43,5.11,1.29,7.42c0.86,2.31,2.08,4.32,3.65,6.05
			c1.57,1.72,3.43,3.08,5.59,4.07c2.15,0.99,4.5,1.48,7.03,1.48c3.24,0,6.03-0.62,8.37-1.86c2.33-1.24,4.64-2.93,6.92-5.06
			l6.01,6.08C334.4,1378.32,332.97,1379.62,331.47,1380.76z"/>
		<path d="M410.52,1369.32c-1.37,3.35-3.3,6.27-5.78,8.78c-2.48,2.51-5.43,4.5-8.82,5.97c-3.4,1.47-7.15,2.21-11.26,2.21
			c-4.11,0-7.86-0.72-11.25-2.17c-3.4-1.44-6.31-3.41-8.75-5.89c-2.43-2.48-4.33-5.4-5.7-8.75c-1.37-3.35-2.05-6.89-2.05-10.65
			c0-3.75,0.68-7.3,2.05-10.65s3.3-6.27,5.78-8.78c2.48-2.51,5.42-4.5,8.82-5.97c3.4-1.47,7.15-2.21,11.25-2.21
			c4.11,0,7.86,0.72,11.26,2.17c3.4,1.45,6.31,3.41,8.75,5.89c2.43,2.48,4.33,5.4,5.7,8.75c1.37,3.35,2.05,6.9,2.05,10.65
			C412.58,1362.42,411.89,1365.97,410.52,1369.32z M401.44,1351.49c-0.89-2.31-2.13-4.32-3.73-6.05c-1.6-1.72-3.51-3.09-5.74-4.11
			c-2.23-1.01-4.66-1.52-7.3-1.52c-2.64,0-5.06,0.49-7.26,1.48c-2.21,0.99-4.09,2.33-5.67,4.03c-1.57,1.7-2.8,3.7-3.69,6.01
			c-0.89,2.31-1.33,4.75-1.33,7.34c0,2.59,0.44,5.03,1.33,7.34c0.89,2.31,2.13,4.32,3.73,6.05c1.6,1.72,3.51,3.09,5.74,4.11
			c2.23,1.02,4.66,1.52,7.3,1.52c2.64,0,5.06-0.49,7.26-1.48c2.21-0.99,4.09-2.33,5.67-4.03c1.57-1.7,2.8-3.7,3.69-6.01
			c0.89-2.31,1.33-4.75,1.33-7.34S402.32,1353.79,401.44,1351.49z"/>
		<path d="M476.23,1332.13h9.28v53.23h-7.82l-29.29-37.87v37.87h-9.28v-53.23h8.65l28.46,36.81V1332.13z"/>
		<path d="M536.92,1385.37h-9.43v-44.56H510.6v-8.67h43.2v8.67h-16.88V1385.37z"/>
		<path d="M588.7,1332.13v53.23h-9.28v-53.23H588.7z"/>
		<path d="M661.29,1381.18c-1.6,1.01-3.32,1.9-5.17,2.66c-1.85,0.76-3.84,1.36-5.97,1.79c-2.13,0.43-4.36,0.65-6.69,0.65
			c-4.16,0-7.94-0.7-11.33-2.09c-3.4-1.39-6.3-3.32-8.71-5.78c-2.41-2.46-4.27-5.36-5.59-8.71c-1.32-3.35-1.98-6.97-1.98-10.87
			c0-3.75,0.67-7.3,2.01-10.65c1.34-3.35,3.23-6.27,5.67-8.78c2.43-2.51,5.34-4.5,8.71-5.97c3.37-1.47,7.06-2.21,11.07-2.21
			c2.33,0,4.45,0.17,6.35,0.49c1.9,0.33,3.66,0.8,5.29,1.41c1.62,0.61,3.16,1.36,4.6,2.24c1.45,0.89,2.85,1.91,4.22,3.08l-5.93,7.07
			c-1.02-0.86-2.05-1.65-3.12-2.36c-1.06-0.71-2.18-1.3-3.35-1.79c-1.17-0.48-2.45-0.86-3.84-1.14c-1.4-0.28-2.93-0.42-4.6-0.42
			c-2.43,0-4.7,0.5-6.81,1.49c-2.1,0.99-3.93,2.35-5.48,4.08c-1.55,1.73-2.76,3.73-3.65,6.02c-0.89,2.29-1.33,4.72-1.33,7.31
			c0,2.74,0.43,5.28,1.29,7.62c0.86,2.34,2.09,4.36,3.69,6.06c1.6,1.7,3.5,3.04,5.7,4c2.21,0.96,4.68,1.45,7.41,1.45
			c2.53,0,4.91-0.37,7.11-1.11c2.21-0.74,4.12-1.72,5.74-2.94v-10.02H643v-8.14h22.66v22.36
			C664.34,1379.1,662.89,1380.17,661.29,1381.18z"/>
		<path d="M744.3,1369.32c-1.37,3.35-3.3,6.27-5.78,8.78c-2.48,2.51-5.43,4.5-8.82,5.97c-3.4,1.47-7.15,2.21-11.26,2.21
			c-4.11,0-7.86-0.72-11.25-2.17c-3.4-1.44-6.31-3.41-8.75-5.89c-2.43-2.48-4.33-5.4-5.7-8.75c-1.37-3.35-2.05-6.89-2.05-10.65
			c0-3.75,0.68-7.3,2.05-10.65c1.37-3.35,3.3-6.27,5.78-8.78c2.48-2.51,5.42-4.5,8.82-5.97c3.4-1.47,7.15-2.21,11.25-2.21
			c4.11,0,7.86,0.72,11.26,2.17c3.4,1.45,6.31,3.41,8.75,5.89c2.43,2.48,4.33,5.4,5.7,8.75c1.37,3.35,2.05,6.9,2.05,10.65
			C746.35,1362.42,745.67,1365.97,744.3,1369.32z M735.21,1351.49c-0.89-2.31-2.13-4.32-3.73-6.05s-3.51-3.09-5.74-4.11
			c-2.23-1.01-4.66-1.52-7.3-1.52c-2.64,0-5.06,0.49-7.26,1.48c-2.21,0.99-4.09,2.33-5.67,4.03c-1.57,1.7-2.8,3.7-3.69,6.01
			c-0.89,2.31-1.33,4.75-1.33,7.34c0,2.59,0.44,5.03,1.33,7.34c0.89,2.31,2.13,4.32,3.73,6.05c1.6,1.72,3.51,3.09,5.74,4.11
			c2.23,1.02,4.66,1.52,7.3,1.52c2.64,0,5.06-0.49,7.26-1.48c2.21-0.99,4.09-2.33,5.67-4.03c1.57-1.7,2.8-3.7,3.69-6.01
			c0.89-2.31,1.33-4.75,1.33-7.34S736.1,1353.79,735.21,1351.49z"/>
		<path d="M850.31,1340.57h-30.12v13.69h26.69v8.44h-26.69v14.22h30.5v8.44h-39.77v-53.23h39.39V1340.57z"/>
		<path d="M914.19,1332.13h9.28v53.23h-7.82l-29.29-37.87v37.87h-9.28v-53.23h8.65l28.46,36.81V1332.13z"/>
		<path d="M1029.78,1340.57h-30.12v13.69h26.69v8.44h-26.69v14.22h30.5v8.44h-39.77v-53.23h39.39V1340.57z"/>
		<path d="M1056.55,1332.13h9.28v44.79h27.99v8.44h-37.26V1332.13z"/>
		<path d="M1198.87,1380.76c-1.5,1.14-3.11,2.13-4.83,2.97c-1.72,0.84-3.61,1.47-5.67,1.9c-2.05,0.43-4.32,0.65-6.81,0.65
			c-3.9,0-7.5-0.71-10.8-2.13c-3.3-1.42-6.15-3.36-8.56-5.82c-2.41-2.46-4.3-5.36-5.66-8.71c-1.37-3.35-2.05-6.94-2.05-10.8
			c0-3.8,0.67-7.38,2.02-10.72c1.34-3.35,3.23-6.27,5.66-8.78c2.43-2.51,5.32-4.49,8.67-5.93c3.35-1.45,7.05-2.17,11.1-2.17
			c2.43,0,4.65,0.2,6.65,0.61c2,0.41,3.84,0.98,5.51,1.71c1.67,0.74,3.22,1.61,4.64,2.62c1.42,1.01,2.76,2.13,4.03,3.35l-6.01,6.92
			c-2.13-1.98-4.39-3.57-6.77-4.79c-2.38-1.22-5.1-1.82-8.14-1.82c-2.54,0-4.88,0.49-7.03,1.48c-2.16,0.99-4.02,2.33-5.59,4.03
			c-1.57,1.7-2.79,3.69-3.65,5.97c-0.86,2.28-1.29,4.74-1.29,7.38c0,2.64,0.43,5.11,1.29,7.42c0.86,2.31,2.08,4.32,3.65,6.05
			c1.57,1.72,3.43,3.08,5.59,4.07c2.15,0.99,4.5,1.48,7.03,1.48c3.24,0,6.03-0.62,8.37-1.86c2.33-1.24,4.64-2.93,6.92-5.06
			l6.01,6.08C1201.8,1378.32,1200.37,1379.62,1198.87,1380.76z"/>
		<path d="M1279.14,1385.37h-9.89l-5.4-12.85h-25.17l-5.48,12.85h-9.58l23.42-53.61h8.67L1279.14,1385.37z M1251.23,1342.93
			l-9.13,21.29h18.33L1251.23,1342.93z"/>
		<path d="M1329.71,1372.29h-0.3l-16.66-24.94v38.02h-9.28v-53.23h9.96l16.2,25.17l16.2-25.17h9.96v53.23h-9.28v-38.18
			L1329.71,1372.29z"/>
		<path d="M1394.51,1332.13v53.23h-9.28v-53.23H1394.51z"/>
		<path d="M1461.13,1332.13h9.28v53.23h-7.82l-29.29-37.87v37.87h-9.28v-53.23h8.65l28.46,36.81V1332.13z"/>
		<path d="M1550.56,1369.32c-1.37,3.35-3.3,6.27-5.78,8.78c-2.48,2.51-5.43,4.5-8.82,5.97c-3.4,1.47-7.15,2.21-11.25,2.21
			c-4.11,0-7.86-0.72-11.26-2.17c-3.4-1.44-6.31-3.41-8.75-5.89c-2.43-2.48-4.33-5.4-5.7-8.75c-1.37-3.35-2.05-6.89-2.05-10.65
			c0-3.75,0.68-7.3,2.05-10.65s3.29-6.27,5.78-8.78c2.48-2.51,5.42-4.5,8.82-5.97c3.4-1.47,7.15-2.21,11.26-2.21
			c4.11,0,7.86,0.72,11.26,2.17c3.4,1.45,6.31,3.41,8.75,5.89c2.43,2.48,4.33,5.4,5.7,8.75s2.05,6.9,2.05,10.65
			C1552.61,1362.42,1551.93,1365.97,1550.56,1369.32z M1541.47,1351.49c-0.89-2.31-2.13-4.32-3.73-6.05
			c-1.6-1.72-3.51-3.09-5.74-4.11c-2.23-1.01-4.67-1.52-7.3-1.52c-2.64,0-5.06,0.49-7.26,1.48c-2.21,0.99-4.09,2.33-5.67,4.03
			c-1.57,1.7-2.8,3.7-3.69,6.01c-0.89,2.31-1.33,4.75-1.33,7.34c0,2.59,0.44,5.03,1.33,7.34c0.89,2.31,2.13,4.32,3.73,6.05
			c1.6,1.72,3.51,3.09,5.74,4.11c2.23,1.02,4.66,1.52,7.3,1.52c2.64,0,5.06-0.49,7.26-1.48c2.21-0.99,4.09-2.33,5.67-4.03
			c1.57-1.7,2.8-3.7,3.69-6.01c0.89-2.31,1.33-4.75,1.33-7.34S1542.36,1353.79,1541.47,1351.49z"/>
	</g>
	<g class="st2">
		<path d="M1586.48,1377.06c0.79-0.91,1.69-1.73,2.44-2.68c3.42-4.35,5.84-9.3,8.4-14.15c0.26-0.49,0.23-0.88-0.34-1.36
			c-1.7-1.46-3.39-2.96-4.83-4.66c-1.3-1.53-0.85-2.76,1.04-3.33c1.63-0.49,3.32-0.74,4.99-1.09c0.62-0.13,1.24-0.27,1.86-0.4
			c-1.92-1.01-3.9-1.62-5.71-2.56c-3.41-1.76-6.88-2.91-10.8-2.46c-1.36,0.16-2.68-0.68-2.87-1.92c-0.31-2.08-0.08-4.24-0.08-6.33
			c0.55,0.04,1.12,0.13,1.68,0.1c0.18-0.01,0.35-0.33,0.53-0.5c-0.17-0.16-0.34-0.46-0.52-0.46c-0.75-0.02-1.06-0.36-1.02-1.09
			c0.01-0.18-0.07-0.51-0.15-0.52c-1.08-0.22-0.72-1.08-0.72-1.69c0-8.48,0.1-16.96,0.02-25.44c-0.02-2.65,1.49-3.92,3.89-3.9
			c11.29,0.08,22.59,0.08,33.88,0c2.52-0.02,4,1.25,3.98,3.93c-0.09,11.25-0.06,22.51-0.01,33.77c0.01,1.76-0.35,3.18-2,4.3
			c1.74,0.38,3.49,0.76,5.21,1.14c0.35-1.2,0.77-2.08,0.83-2.99c0.22-3.43,0.47-6.86,0.42-10.29c-0.06-3.63-0.52-7.24-0.67-10.87
			c-0.1-2.55,0.93-4.7,2.94-6.3c1.79-1.42,3.63-2.77,5.44-4.17c0.9-0.69,1-1.44,0.08-1.78c-1.5-0.55-1.8-1.81-2.27-3.03
			c-1.29-3.31-1.51-6.57,0.44-9.75c3.23-5.28,11.27-5.47,14.85-0.44c1.47,2.06,1.49,4.53,2.4,6.73c0.2,0.49,0.34,1.08,0.28,1.6
			c-0.24,2.17-0.08,4.56-2.64,5.65c-0.37,1.29-1.44,1.33-2.51,1.44c-0.41,0.04-0.82,0.22-1.2,0.42c-2.17,1.15-3.12,3.15-1.76,4.79
			c1.75,2.09,2.33,4.42,2.17,7.05c-0.03,0.52,0.09,1.08,0.28,1.56c0.67,1.74,1.5,3.42,2.07,5.18c0.32,0.97,0.84,1.24,1.74,1.38
			c1.57,0.24,3.11,0.66,4.68,0.92c1.96,0.32,3.97,1.09,5.78-0.55c0.44-0.4,1.08-0.59,1.65-0.83c1.01-0.45,1.62-0.1,1.81,0.93
			c0.05,0.26,0.34,0.46,0.53,0.7c0.17-0.25,0.53-0.53,0.49-0.75c-0.13-0.74-0.39-1.45-0.65-2.34c0.76-0.43,1.71-0.89,2.56-1.49
			c0.37-0.26,0.79-0.81,0.77-1.21c-0.06-1.08-0.22-2.18-0.55-3.21c-0.67-2.14-0.08-2.17-2.59-1.39c-1.27,0.4-2.01,0.2-2.39-1.08
			c-0.34-1.16-0.39-2.44-0.36-3.66c0.05-1.53,0.56-1.83,1.99-1.49c2.01,0.47,3.11,1.93,3.63,3.74c0.7,2.42,1.15,4.9,1.73,7.44
			c2.63-0.38,5.39-1.04,7.99,1.04c2.7,2.16,2.94,4.91,2.48,8.09c-0.77,0.27-1.75,0.62-2.72,0.97c0.01,0.12,0.02,0.25,0.03,0.37
			c0.33,0.15,0.65,0.32,0.99,0.45c0.98,0.37,2.01,0.63,2.94,1.11c5.36,2.78,10.29,6.2,14.81,10.18c1.9,1.68,3.57,3.65,5.17,5.63
			c1.09,1.35,0.87,2.23-0.33,3.5c-0.37,0.39-0.7,0.8-1.04,1.19c1.76,0.53,3.48,0.91,5.09,1.56c4.01,1.62,6.93,4.47,8.77,8.38
			c0.55,1.16,0.13,1.76-1.17,1.79c-0.81,0.02-1.61,0-2.61,0c8.58,7.36,7.37,17.31,2.96,22.86c-4.44,5.59-11.9,7.65-18.83,4.82
			c-3.91-1.6-6.77-4.51-8.42-8.41c-1.66-3.94-1.71-8.01-0.16-12.21c-0.33,0.23-0.52,0.3-0.63,0.44c-1.45,1.96-2.84,3.97-4.35,5.88
			c-0.73,0.91-1.58,1.94-2.6,2.36c-1.37,0.56-2.96,0.81-4.45,0.76c-4.33-0.13-8.66-0.37-12.98-0.74
			c-7.12-0.61-14.22-1.35-21.33-2.06c-0.37-0.04-0.69-0.37-1.05-0.54c-0.31-0.14-0.75-0.43-0.93-0.32
			c-0.38,0.22-0.94,0.73-0.88,1.01c0.29,1.43-0.43,1.72-1.61,1.71c-0.43,0-0.85,0.16-1.28,0.15c-2.07-0.02-4.15,0.81-6.26-0.14
			c-0.28,1-0.48,2.03-0.86,2.99c-3.96,10.09-15.73,13.28-24.04,7.56c-7.03-4.84-9.07-14.27-4.6-21.49c2.29-3.7,5.57-6.16,9.89-7.15
			c2-0.46,3.98-0.8,6.02-0.3c0.91,0.23,1.53,0.04,1.59-1.07c0.02-0.38,0.29-0.74,0.3-1.11c0.01-0.33-0.09-0.8-0.32-0.97
			c-2.76-2.09-5.89-2.31-9.1-1.51c-1.88,0.47-3.03,2.08-4.28,3.44c-3.32,3.65-6.7,7.25-10.63,10.27c-0.94,0.72-1.88,1.1-3.18,0.14
			C1585.97,1377.87,1586.17,1377.42,1586.48,1377.06z M1642.45,1342.47c-0.01,0.92,0.55,1.14,1.41,1.06
			c5.29-0.45,10.58-0.85,15.87-1.28c2.2-0.18,4.31-0.01,5.48,2.17c0.57,1.06,0.96,2.32,1.07,3.52c0.37,3.81-0.4,7.54-1.16,11.25
			c-0.66,3.23-1.5,6.43-2.26,9.65c-0.53,2.26,0.97,4.89,3.2,5.64c0.99,0.34,1.95,0.76,3.15,1.23c0.65-1.35,1.41-2.69,1.96-4.12
			c1.5-3.86,2.2-7.87,1.87-12.02c-0.45-5.72-2.17-10.99-5.72-15.59c-0.29-0.38-0.41-1.23-0.18-1.6c0.42-0.67,0.16-1-0.27-1.36
			c-1.19-0.99-2.4-1.96-3.6-2.93c-0.12-0.1-0.25-0.22-0.39-0.24c-1.92-0.2-3.84-0.56-5.76-0.54c-4.41,0.05-8.82,0.29-13.22,0.45
			c-0.35,0.01-0.69,0-1.26,0C1642.57,1339.45,1642.47,1340.96,1642.45,1342.47z M1698.03,1376.53c-4.48,0.02-8.25,3.88-8.22,8.41
			c0.03,4.54,3.85,8.32,8.37,8.27c4.56-0.05,8.28-3.81,8.27-8.35C1706.43,1380.3,1702.6,1376.51,1698.03,1376.53z M1609.05,1393.21
			c4.53,0.03,8.4-3.79,8.33-8.32c-0.07-4.77-3.73-8.28-8.3-8.34c-4.28-0.06-8.46,3.57-8.27,8.31
			C1600.6,1389.32,1604.45,1393.18,1609.05,1393.21z M1654.55,1370.55c-0.11-3.85-0.02-7.7-0.01-11.55c0-0.22,0.03-0.44,0.04-0.67
			c-0.12-0.05-0.23-0.1-0.35-0.15c-0.2,0.4-0.6,0.81-0.56,1.19c0.09,1.09-0.33,1.83-1.08,2.56c-1.14,1.1-2.17,2.32-3.28,3.45
			c-0.75,0.76-0.71,1.4-0.18,2.36c1.16,2.13,2.09,4.38,3.14,6.57c0.31,0.66,0.72,1.27,1.22,2.14
			C1654.46,1374.4,1654.61,1372.53,1654.55,1370.55z M1625.12,1366.49c-0.68-0.45-1.24-0.23-1.71,0.39
			c-0.35,0.47-0.73,0.92-1.14,1.34c-0.65,0.68-0.61,1.42,0.26,2.08c0.61,0.47,1.24,1.39,2,0.06c0.53-0.94,1.25-1.77,1.97-2.77
			C1625.97,1367.15,1625.57,1366.78,1625.12,1366.49z M1615.73,1360.77c-1.26,0.76-2.36,3.88-1.98,4.77
			c0.77-0.78,1.57-1.62,2.43-2.4c0.21-0.19,0.61-0.17,0.92-0.24c0,0.39,0.14,0.84-0.01,1.16c-0.28,0.59-0.73,1.1-1.11,1.65
			c0.13,0.1,0.26,0.2,0.39,0.3c0.75-0.9,1.5-1.8,2.32-2.78c-0.68-0.51-1.22-1.25-1.79-1.27c-0.56-0.02-1.15,0.68-2.03,1.26
			C1615.19,1362.26,1615.43,1361.6,1615.73,1360.77z M1627.82,1371.21c-0.56,0.08-1.39,0.19-1.55,0.54
			c-0.18,0.39,0.14,1.16,0.48,1.59c0.43,0.55,1.1,0.83,2.02,0.11c-0.53-0.15-0.92-0.17-1.18-0.36c-0.28-0.2-0.45-0.55-0.66-0.84
			c0.29-0.1,0.58-0.22,0.89-0.27c0.18-0.03,0.39,0.13,0.57,0.1c0.52-0.1,1.03-0.26,1.54-0.4c-0.14-0.53-0.16-1.16-0.47-1.56
			c-0.39-0.51-1.01-0.86-1.78-0.21c0.6,0.35,1.13,0.66,1.66,0.97c-0.07,0.16-0.13,0.32-0.2,0.49
			C1628.7,1371.3,1628.24,1371.15,1627.82,1371.21z M1620.99,1367.38c-0.69,0.62-0.69,0.62-1.49-0.38c-0.46,0.55-0.41,0.9,0.17,1.31
			c0.8,0.56,1.52,0.3,2.3-0.79c0.55-0.77,0.68-1.5-0.16-2.13c-0.71-0.53-1.39-0.25-2.08,0.91
			C1620.18,1366.68,1620.58,1367.02,1620.99,1367.38z M1583.1,1330.62c-0.26,0.04-0.48,0.35-0.71,0.54c0.22,0.15,0.44,0.3,0.65,0.47
			c0.28,0.23,0.56,0.47,0.8,0.74c0.23,0.27,0.39,0.59,0.58,0.88c0.22-0.32,0.43-0.63,0.5-0.73
			C1584.9,1331.09,1584.22,1330.46,1583.1,1330.62z M1660.57,1335.78c0.2-0.03,0.37-0.29,0.55-0.44c-0.16-0.17-0.31-0.47-0.48-0.49
			c-0.62-0.05-1.01-0.24-1.08-0.94c-0.03-0.26-0.31-0.5-0.48-0.75c-0.2,0.27-0.39,0.55-0.45,0.63
			C1658.6,1335.24,1659.41,1335.97,1660.57,1335.78z M1620.21,1364.38c-0.46-0.33-0.84-0.6-1.22-0.87
			c-0.12-0.02-0.24-0.04-0.35-0.06c0.87,1.57-0.61,2.31-0.99,3.44c0.15,0.11,0.29,0.22,0.44,0.33
			C1618.77,1366.3,1619.46,1365.38,1620.21,1364.38z M1626.78,1369.74c0.27-0.41,0.41-0.89,0.62-1.34
			c-0.41,0.32-0.87,0.58-1.21,0.96c-0.48,0.55-0.89,1.17-1.29,1.79c-0.13,0.21-0.13,0.5-0.19,0.75c0.13,0.07,0.25,0.13,0.38,0.2
			C1625.66,1371.32,1626.25,1370.55,1626.78,1369.74z"/>
		<path d="M1624.54,1370.35c-0.76,1.34-1.39,0.41-2-0.06c-0.87-0.66-0.91-1.4-0.26-2.08c0.4-0.42,0.78-0.87,1.14-1.34
			c0.47-0.62,1.03-0.84,1.71-0.39c0.45,0.3,0.85,0.67,1.38,1.1C1625.78,1368.58,1625.07,1369.41,1624.54,1370.35z M1622.83,1368.79
			c0.1,0.36,0.14,0.96,0.33,1.01c0.32,0.09,0.75-0.16,1.13-0.26c-0.03-0.25-0.06-0.5-0.09-0.75
			C1623.74,1368.79,1623.29,1368.79,1622.83,1368.79z M1625.04,1367.32c-0.34,0.01-0.67,0.02-1.01,0.02c0.15,0.4,0.3,0.79,0.45,1.19
			c0.18-0.03,0.37-0.05,0.55-0.08C1625.04,1368.08,1625.04,1367.7,1625.04,1367.32z"/>
		<path d="M1614.85,1363.22c0.34-0.96,0.58-1.62,0.87-2.44c-1.26,0.76-2.36,3.88-1.98,4.77c0.77-0.78,1.57-1.62,2.43-2.4
			c0.21-0.19,0.61-0.17,0.92-0.24c0,0.39,0.14,0.84-0.01,1.16c-0.28,0.59-0.73,1.1-1.11,1.65c0.13,0.1,0.26,0.2,0.39,0.3
			c0.75-0.9,1.5-1.8,2.32-2.78c-0.68-0.51-1.22-1.25-1.79-1.27C1616.32,1361.94,1615.72,1362.64,1614.85,1363.22z"/>
		<path d="M1629.14,1371.36c-0.44-0.06-0.89-0.21-1.32-0.15c-0.56,0.08-1.39,0.19-1.55,0.54c-0.18,0.39,0.14,1.16,0.48,1.59
			c0.43,0.55,1.1,0.83,2.02,0.11c-0.53-0.15-0.92-0.17-1.18-0.36c-0.28-0.2-0.45-0.55-0.66-0.84c0.29-0.1,0.58-0.22,0.89-0.27
			c0.18-0.03,0.39,0.13,0.57,0.1c0.52-0.1,1.03-0.26,1.54-0.4c-0.14-0.53-0.16-1.16-0.47-1.56c-0.39-0.51-1.01-0.86-1.78-0.21
			c0.6,0.35,1.13,0.66,1.66,0.97C1629.27,1371.04,1629.2,1371.2,1629.14,1371.36z"/>
		<path d="M1619.73,1366.29c0.45,0.38,0.85,0.73,1.26,1.08c-0.69,0.62-0.69,0.62-1.49-0.38c-0.46,0.55-0.41,0.9,0.17,1.31
			c0.8,0.56,1.52,0.3,2.3-0.79c0.55-0.77,0.68-1.5-0.16-2.13C1621.09,1364.85,1620.42,1365.14,1619.73,1366.29z"/>
		<path d="M1584.91,1332.52c-0.01-1.43-0.69-2.06-1.81-1.89c-0.26,0.04-0.48,0.35-0.71,0.54c0.22,0.15,0.44,0.3,0.65,0.47
			c0.28,0.23,0.56,0.47,0.8,0.74c0.23,0.27,0.39,0.59,0.58,0.88C1584.62,1332.93,1584.84,1332.62,1584.91,1332.52z"/>
		<path d="M1658.62,1333.79c-0.02,1.45,0.79,2.18,1.94,1.99c0.2-0.03,0.37-0.29,0.55-0.44c-0.16-0.17-0.31-0.47-0.48-0.49
			c-0.62-0.05-1.01-0.24-1.08-0.94c-0.03-0.26-0.31-0.5-0.48-0.75C1658.88,1333.43,1658.68,1333.71,1658.62,1333.79z"/>
		<path d="M1618.08,1367.22c0.69-0.92,1.38-1.85,2.13-2.84c-0.46-0.33-0.84-0.6-1.22-0.87c-0.12-0.02-0.24-0.04-0.35-0.06
			c0.87,1.57-0.61,2.31-0.99,3.44C1617.78,1367,1617.93,1367.11,1618.08,1367.22z"/>
		<path d="M1625.09,1372.1c0.57-0.78,1.17-1.55,1.7-2.36c0.27-0.41,0.41-0.89,0.62-1.34c-0.41,0.32-0.87,0.58-1.21,0.96
			c-0.48,0.55-0.89,1.17-1.29,1.79c-0.13,0.21-0.13,0.5-0.19,0.75C1624.83,1371.97,1624.96,1372.03,1625.09,1372.1z"/>
		<path d="M1624.2,1368.79c-0.46,0-0.91,0-1.37,0c0.1,0.36,0.14,0.96,0.33,1.01c0.32,0.09,0.75-0.16,1.13-0.26
			C1624.26,1369.29,1624.23,1369.04,1624.2,1368.79z"/>
		<path d="M1625.04,1368.46c0-0.38,0-0.76,0-1.13c-0.34,0.01-0.67,0.02-1.01,0.02c0.15,0.4,0.3,0.79,0.45,1.19
			C1624.67,1368.51,1624.85,1368.49,1625.04,1368.46z"/>
		<polygon points="1580.32,1324.89 1580.32,1342.44 1594.22,1337.3 1588.85,1327.01 		"/>
	</g>
</g>
<g id="_x31_">
	<rect width="2000" height="2000"/>
	<g>
		<g>
			<path class="st11" d="M1711.32,620.95c0-4.99,0-9.98-0.01-14.97c-0.08-0.85-0.21-1.71-0.24-2.56c-0.06-1.68-0.04-3.36-0.11-5.04
				c-0.09-2.07-0.32-4.11-1.08-6.06c-1-2.57-2.76-4.35-5.38-5.24c-1.65-0.56-3.37-0.74-5.11-0.69c-0.46,0.01-0.91,0.03-1.2,0.52
				c0.18,0.12,0.28,0.23,0.41,0.28c4.17,1.83,6.45,5.14,7.38,9.48c0.57,2.68,0.79,5.41,0.75,8.15c-0.03,2.11-0.2,4.23-0.09,6.33
				c0.42,8.12-0.75,16.08-2.28,24c-0.09,0.45-0.26,1.09-0.59,1.25c-0.91,0.46-0.87,1.26-1.04,2.04c-0.22,1.03-0.42,2.07-0.77,3.06
				c-1.14,3.21-3.03,5.99-5.18,8.58c-1.4,1.69-3.38,2.32-5.53,2.3c-1.16-0.01-1.7-0.64-1.47-1.77c0.17-0.83,0.45-1.68,0.86-2.42
				c1.07-1.92,0.79-3.83-0.07-5.65c-0.84-1.78-1.76-3.5-1.86-5.45c-3.29-1.67-4.76-4.32-4.75-7.85c0-0.86-0.01-1.73,0-2.59
				c0.03-5.33,0.15-10.65-0.59-15.95c-0.59-4.28-1.25-8.54-2.59-12.67c-3.07-9.44-9.16-15.79-18.9-18.36
				c-0.23-0.06-0.46-0.12-0.69-0.2c-9.24-3.1-18.7-5.37-28.25-7.3c-10.11-2.04-20.28-3.71-30.51-5.03
				c-5.8-0.75-11.61-1.47-17.43-2.08c-5.82-0.61-11.65-1.07-17.48-1.55c-1.13-0.09-2.28-0.01-3.42-0.01
				c1.74,0.48,3.47,0.81,5.22,1.08c4.12,0.63,8.27,1.13,12.37,1.85c4.39,0.76,8.76,1.66,13.12,2.59c18.52,3.96,37.02,8,55.55,11.89
				c3.03,0.63,5.6,1.88,7.92,3.81c1.03,0.86,2.05,1.74,2.98,2.71c4.31,4.5,7.1,9.75,7.6,16.06c0.15,1.91,0.14,3.84,0.28,5.75
				c0.24,3.35,0.68,6.69,0.78,10.04c0.05,1.67-0.6,3.36,0.28,4.99c0.17,4.27,0.39,8.54-0.05,12.8c-0.05,0.46-0.18,0.94-0.36,1.37
				c-1.85,4.45-2.3,8.97-0.64,13.59c0.16,0.45,0.29,0.92,0.36,1.39c0.38,2.52-1.16,5.08-3.51,5.54c-3.81,0.76-7.63,1.44-11.46,2.05
				c-4.5,0.72-9.02,1.25-13.51,2.02c-3.92,0.67-7.79,1.66-11.71,2.31c-6.91,1.14-13.84,2.09-20.75,3.21
				c-5.3,0.86-10.57,1.87-15.86,2.81c-0.8,0.14-1.61,0.3-2.42,0.35c-2.92,0.18-3.47-0.39-3.41-3.31c0.03-1.33,0-2.66,0-4
				c-0.6,0.04-1.08,0.06-1.55,0.1c-2.14,0.2-4.33,0.23-6.42,0.67c-1.6,0.34-3.03,0.2-4.48-0.38c-1.46-0.59-2.76-1.37-3.18-3.05
				c-0.06-0.22-0.2-0.44-0.35-0.62c-1.48-1.81-1.72-4.02-2.03-6.2c-0.1-0.68,0.27-1.22,0.73-1.19c0.64,0.05,0.67,0.56,0.73,1.05
				c0.05,0.43,0.08,0.87,0.23,1.27c0.25,0.67,0.51,1.35,0.9,1.93c0.42,0.63,1,0.98,1.84,0.53c0.39-0.21,0.96-0.27,1.39-0.18
				c4.1,0.93,7.95-0.71,12.14-0.98c0-0.87,0.14-1.66-0.03-2.36c-0.28-1.1-0.65-2.22-1.19-3.21c-1.09-2.02-2.32-3.98-3.5-5.95
				c-0.25-0.41-0.52-0.81-0.84-1.16c-1.17-1.3-1.79-2.83-1.86-4.57c-0.07-1.77,0.03-3.56-0.13-5.32c-0.36-3.87-0.7-7.74-1.29-11.58
				c-1.06-6.87-2.55-13.67-4.6-20.32c-3.14-10.2-9.47-17.72-18.9-22.7c-6.99-3.68-14.35-6.16-22.18-7.21
				c-6.56-0.88-13.13-1.7-19.69-2.51c-2.13-0.26-4.22-0.85-6.4-0.74c-1,0.05-2.03,0.1-3.01-0.08c-4.21-0.76-8.48-0.91-12.73-1.29
				c-3.77-0.34-7.55-0.68-11.32-1.04c-4.78-0.46-9.57-0.61-14.36-0.46c-2.91,0.09-3.73-0.67-3.24-3.51
				c0.62-3.54,1.28-7.08,1.97-10.6c0.46-2.35,1.05-4.68,1.54-7.02c1.62-7.75,5.94-13.62,12.48-17.93c3.32-2.19,6.69-4.32,10.04-6.48
				c0.2-0.13,0.4-0.27,0.62-0.37c0.83-0.37,1.37-0.24,1.84,0.53c0.3,0.49,0.51,1.03,0.72,1.56c2.76,6.9,4.2,14.15,5.4,21.44
				c0.9,5.48,1.39,11.04,2.05,16.56c0.17,1.45,0.21,1.5,1.69,1.51c4.56,0.01,9.12,0.02,13.68,0.01c0.6,0,1.2-0.14,1.85-0.22
				c0-0.38,0.02-0.62,0-0.85c-0.94-8.96-3.34-17.49-7.24-25.62c-3.44-7.19-8.51-12.88-15.58-16.61c-3.55-1.87-7.31-3.36-10.97-5.04
				c-0.96-0.44-1.77-0.15-2.56,0.39c-4.75,3.25-8.96,7.06-12.3,11.79c-3.06,4.34-5,9.17-6.29,14.27
				c-1.31,5.21-2.43,10.46-3.79,15.65c-0.75,2.87-1.71,5.69-2.8,8.45c-1.04,2.64-3.05,4.13-6.05,3.95
				c-0.12-0.01-0.25,0.04-0.37,0.06c0.42,0.27,0.86,0.42,1.32,0.48c1.24,0.15,2.48,0.26,3.72,0.37c5.92,0.54,11.84,1.13,17.77,1.58
				c5.55,0.42,11.08,1.04,16.57,1.92c6.63,1.05,13.29,1.92,19.99,2.4c6.18,0.45,12.31,1.19,18.35,2.61
				c6.72,1.57,13.15,3.87,19.03,7.54c4.29,2.68,7.63,6.24,10.1,10.64c2.15,3.83,3.59,7.94,4.64,12.2
				c1.33,5.43,1.71,10.98,2.05,16.54c0.26,4.31,0.71,8.6,1.01,12.91c0.28,4.14,1.37,8.22,0.7,12.42c-0.2,1.27-0.16,2.59-0.4,3.86
				c-0.67,3.6-0.24,7.09,1.02,10.46c0.65,1.75,0.79,3.43,0.36,5.2c-0.16,0.65-0.27,1.32-0.39,1.98c-0.23,1.27-0.53,1.57-1.81,1.55
				c-3.57-0.06-7.09-0.46-10.48-1.62c-6.13-2.11-11-6.01-15.01-10.98c-2.38-2.95-4.65-6.01-6.65-9.22
				c-4.41-7.08-7.79-14.64-9.68-22.8c-0.59-2.56-0.95-5.19-1.32-7.8c-0.36-2.51-0.7-5.03-0.87-7.56c-0.31-4.79-0.59-9.58-1.45-14.31
				c-0.49-2.65-1.07-5.26-2.4-7.65c-0.47-0.84-1.12-1.34-2.03-1.7c-2.21-0.87-4.53-1.16-6.83-1.66c-12.43-2.66-24.9-5.06-37.49-6.86
				c-8.45-1.21-16.91-2.35-25.39-3.3c-7.1-0.79-14.23-1.32-21.36-1.85c-11.06-0.83-22.13-1.14-33.22-1.09
				c-2.58,0.01-5.01,0.59-7.45,1.22c-2.32,0.6-3.73,2.14-4.06,4.52c-0.27,1.9-0.51,3.81-0.55,5.72c-0.15,6.66,0.28,13.34-0.7,19.97
				c0.28,2.86,0.57,5.72,0.84,8.58c0.45,4.87,1.15,9.74,1.27,14.61c0.22,9.64,0.16,19.29,0.12,28.93
				c-0.04,10.46-0.23,20.92-0.29,31.38c-0.1,19.58-0.18,39.16-0.22,58.74c-0.04,16.43-0.11,32.86,0.04,49.29
				c0.02,0.17,0.03,0.34,0.03,0.52v65.52c0.31,0.72,0.64,1.43,0.98,2.14c0.44,0.91,0.83,1.84,1.38,2.68c0.28,0.44,0.8,0.91,1.29,1
				c4.22,0.84,7.92,2.83,11.53,5.04c8.01,4.91,16.03,9.81,24.02,14.77c12.81,7.95,25.63,15.91,38.48,23.79
				c0.65,0.08,1.32,0.32,2,0.8c9.02,6.29,18.7,10.59,29.83,10.74c3.33,0.04,6.64-0.18,9.95-0.55c2.54-1.29,5.01-2.78,7.39-4.5
				c0.08-2.96,0.17-5.93,0.24-8.88c0.25-9.45,0.5-18.9,0.74-28.35c0.34-13.52,0.67-27.04,1.02-40.56c0.05-2.01,0.21-4.02,0.25-6.03
				c0.23-10.17,0.41-20.34,0.66-30.51c0.45-18.42,0.93-36.84,1.41-55.25c0.34-13.33,0.68-26.67,1.06-40
				c0.23-8.06,0.54-16.11,0.8-24.16c0.01-0.42-0.04-0.86-0.12-1.28c-0.38-2-0.39-3.99-0.22-6.02c0.38-4.3,0.73-8.6,0.96-12.9
				c0.14-2.68,0.1-5.38,0.01-8.06c-0.05-1.42,0.88-2,2.13-1.69c0.46,0.11,0.91,0.33,1.31,0.58c1.21,0.78,2.47,1.51,3.55,2.45
				c1.52,1.31,3.12,2.61,4.29,4.21c2.6,3.57,5.23,7.11,8.19,10.4c7.55,8.39,16.1,15.49,26.25,20.55c0.25,0.12,0.46,0.3,0.72,0.47
				c-0.23,4.65-0.45,9.25-0.69,13.84c-0.45,8.67-0.91,17.34-1.36,26.02c-0.22,4.12-0.4,8.24-0.65,12.36
				c-0.42,6.61-0.89,13.21-1.33,19.82c-0.32,4.79-0.63,9.57-0.95,14.36c-0.43,6.46-0.88,12.92-1.31,19.39
				c-0.33,4.88-0.63,9.77-0.96,14.65c-0.43,6.37-0.88,12.73-1.31,19.1c-0.42,6.27-0.79,12.55-1.26,18.81
				c-0.68,8.94-1.43,17.88-2.19,26.82c-0.49,5.79-1.33,11.53-2.64,17.19c-1.49,6.42-4.11,12.26-8.77,17.05
				c-0.1,0.1-0.25,0.2-0.28,0.32c-0.06,0.26-0.15,0.6-0.03,0.79c0.11,0.18,0.46,0.27,0.71,0.29c0.23,0.02,0.47-0.08,0.7-0.14
				c6.36-1.72,12.25-4.43,17.56-8.37c0.6-0.44,1.04-0.94,1.31-1.65c1.09-2.77,2.2-5.52,3.34-8.27c3.63-8.79,5.85-17.94,6.85-27.39
				c0.32-3.05,0.65-6.11,1.12-9.14c0.48-3.17,1.17-6.32,1.7-9.49c1.52-9.03,3.05-18.06,4.47-27.11c1.07-6.82,2.04-13.66,2.94-20.51
				c0.89-6.8,1.71-13.61,2.41-20.43c0.73-7.11,1.36-14.23,1.88-21.36c0.52-7.18,0.75-14.37,0.63-21.58
				c-0.01-0.37,0.06-0.74,0.09-1.14c1.43-0.3,2.73-0.15,4,0.39c0.99,0.42,1.63,1.17,1.89,2.21c0.34,1.4,0.7,2.79,1,4.19
				c0.61,2.92,1.42,5.77,2.57,8.52c2.34,5.62,5.71,10.41,10.87,13.81c4.55,2.99,9.49,4.72,14.99,4.81
				c5.26,0.09,10.45-0.52,15.56-1.67c5.28-1.19,10.51-2.64,15.8-3.8c7.72-1.7,15.48-3.26,23.22-4.86c1.25-0.26,1.92,0.3,1.97,1.6
				c0.02,0.48-0.02,0.96-0.08,1.44c-0.31,2.72-0.64,5.43-0.96,8.14c-0.72,6.05-1.46,12.09-2.17,18.14
				c-0.72,6.14-1.43,12.29-2.12,18.44c-0.74,6.53-1.48,13.06-2.17,19.59c-0.51,4.83-1.33,9.59-2.72,14.25
				c-2.63,8.76-6.68,16.93-10.56,25.18c-0.22,0.47-0.58,0.88-0.81,1.36c-0.19,0.38-0.37,0.8-0.39,1.21
				c-0.04,0.91,0.51,1.32,1.37,1.04c1.87-0.62,3.72-1.26,5.57-1.92c1.16-0.41,2.03-1.16,2.8-2.15c7.42-9.63,11.59-20.61,13.31-32.53
				c0.94-6.5,1.38-13.06,2.01-19.6c0.92-9.69,1.79-19.39,2.71-29.08c0.8-8.31,1.67-16.61,2.45-24.92c0.13-1.37,0.66-2.34,1.8-3.08
				c1.04-0.68,2.08-1.38,3.04-2.18c3.77-3.16,5.47-7.14,4.81-12.11c-0.55-4.09-1.81-7.92-3.74-11.56c-0.58-1.09-1.09-2.25-1.44-3.44
				c-0.78-2.61-0.84-5.29-0.55-7.99c0.26-2.43,0.61-4.86,0.81-7.29c0.16-1.86,0.16-3.74,0.22-5.61c0.05-1.3,0.43-2.44,1.82-2.77
				c1.77-0.42,2.4-1.81,2.04-3.68c-0.4-2.12-0.78-4.24-1.18-6.36c-0.56-3.02-1.09-6.04-1.03-9.13c0.03-1.36,0.56-2.33,1.9-2.72
				c2.16-0.63,3.34-2.16,3.9-4.23c0.33-1.25,0.68-2.51,0.83-3.79c0.46-3.86,0.82-7.72,1.26-11.58c0.12-1.09,0.13-2.09-0.63-2.98
				c-0.51-0.6-0.35-1.16,0.24-1.61c1.69-1.26,3.37-2.54,5.1-3.75c0.64-0.45,1.1-0.2,1.21,0.58c0.1,0.71,0.09,1.44,0.09,2.15
				c0.09,9.65-0.3,19.29-0.96,28.91c-0.26,3.83-0.64,7.65-1.01,11.47c-0.4,4.11-0.9,8.2-1.27,12.31c-0.36,4.06-0.64,8.13-0.91,12.2
				c-0.47,7.09-0.92,14.17-1.33,21.26c-0.34,5.8-0.61,11.6-0.94,17.39c-0.51,8.76-1.03,17.53-1.6,26.29
				c-0.37,5.7-0.8,11.39-1.25,17.08c-0.6,7.51-1.32,15.01-1.86,22.52c-0.63,8.79-2.15,17.4-4.55,25.88
				c-0.75,2.65-1.56,5.23-3.59,7.25c-0.33,0.33-0.55,0.78-0.77,1.21c-0.13,0.26-0.16,0.58-0.24,0.91c0.26,0.03,0.4,0.07,0.54,0.07
				c4.02-0.06,6.87-1.97,8.46-5.61c0.86-1.97,1.51-4.04,2.11-6.11c1.42-4.92,1.65-10.02,1.97-15.09c0.41-6.51,0.85-13.02,1.28-19.53
				c0.45-6.8,0.9-13.6,1.33-20.39c0.33-5.22,0.63-10.44,0.95-15.66c0.45-7.33,0.91-14.65,1.35-21.98
				c0.32-5.36,0.62-10.73,0.93-16.09c0.45-7.71,0.91-15.42,1.35-23.13c0.32-5.46,0.61-10.92,0.93-16.38
				c0.52-8.62,1.07-17.24,1.58-25.86c0.44-7.28,0.84-14.56,1.26-21.84c0.03-0.57,0.15-1.15,0.13-1.72
				c-0.08-2.96,0.81-5.62,2.19-8.23c3.88-7.31,6.23-15.04,5.99-23.43C1711.07,622.67,1711.24,621.81,1711.32,620.95z
				 M1499.83,664.94c-0.09,3.26-0.29,6.52-0.52,9.77c-0.31,4.5-0.68,8.99-1.03,13.49c-0.45,5.93-0.9,11.86-1.34,17.8
				c-0.42,5.6-0.82,11.2-1.24,16.79c-0.44,5.84-0.89,11.67-1.32,17.51c-0.32,4.31-0.64,8.61-0.96,12.92
				c-0.44,5.88-0.89,11.77-1.33,17.65c-0.33,4.35-0.64,8.71-0.96,13.06c-0.53,7.08-1.08,14.16-1.61,21.24
				c-0.42,5.65-0.83,11.29-1.26,16.94c-0.43,5.79-0.88,11.58-1.32,17.36c-0.32,4.31-0.63,8.61-0.96,12.92
				c-0.54,7.18-1.09,14.35-1.63,21.53c-0.4,5.36-0.8,10.72-1.2,16.07c-0.49,6.6-0.97,13.2-1.48,19.81
				c-0.08,0.99-0.26,1.98-0.42,3.17c-0.56-0.32-1.02-0.56-1.46-0.83c-30.24-18.22-60.48-36.45-90.74-54.63
				c-1.03-0.62-1.28-1.31-1.28-2.41c0-50.25-0.03-100.49-0.06-150.74c-0.01-19.53-0.02-39.06-0.03-58.6c0-1.97-0.02-3.93-0.53-5.86
				c-0.08-0.32-0.1-0.67-0.07-1c0.06-0.79,0.45-1.13,1.23-1.05c0.37,0.04,0.76,0.16,1.1,0.32c4.12,1.95,8.51,3.01,12.98,3.59
				c8.8,1.16,17.49,2.96,26.18,4.7c8.41,1.68,16.86,3.23,25.29,4.83c9.32,1.78,18.65,3.55,27.97,5.35c2.98,0.57,5.95,1.13,8.99,0.72
				c1.61-0.21,3.21-0.57,4.8-0.91c1.79-0.39,2.57-0.02,3.22,1.7C1499.65,660.33,1499.89,662.63,1499.83,664.94z M1500.37,604.91
				c-1.45,12.31-4.17,24.38-6.86,36.45c-0.32,1.45-0.67,2.9-1.01,4.34c-0.09,0.36-0.22,0.71-0.36,1.16
				c-2.47-0.39-4.88-0.76-7.28-1.15c-8.71-1.4-17.42-2.79-26.13-4.22c-7.62-1.25-15.22-2.61-22.84-3.83
				c-7.95-1.27-15.93-2.39-23.89-3.65c-5.02-0.79-10.03-1.62-15.02-2.58c-3.11-0.6-5.86-2.08-8.33-4.07
				c-0.68-0.55-1.01-1.13-1.01-2.06c0.03-13.87,0.01-27.74,0-41.61c0-1.59,0.34-1.93,1.98-1.79c1.91,0.17,3.81,0.46,5.72,0.66
				c4.29,0.45,8.58,0.95,12.88,1.31c8.56,0.7,17.06,1.82,25.49,3.53c5.59,1.13,11.23,2.01,16.88,2.82
				c6.74,0.97,13.51,1.7,20.26,2.62c3.85,0.52,7.66,1.28,11.51,1.8c2.66,0.36,5.34,0.57,8.02,0.74c2.72,0.17,5.46,0.2,8.19,0.3
				c1.66,0.06,1.77,0.16,2.03,1.76C1501.01,599.96,1500.66,602.44,1500.37,604.91z M1573.56,679.25c0.81-1.05,1.51-2.18,2.39-3.47
				c0.18,2.89-1.72,5.41-5.06,6.6C1571.9,681.21,1572.78,680.27,1573.56,679.25z M1573.68,740.33c-0.65,7.93-1.26,15.87-2.02,23.8
				c-0.47,4.87-1.2,9.71-1.76,14.57c-0.28,2.38-0.42,4.78-0.65,7.16c-0.42,4.34-0.77,8.69-1.32,13.02
				c-0.63,5.01-0.92,10.02-1.07,15.06c-0.08,2.72-0.5,5.43-0.81,8.14c-0.05,0.47-0.3,0.93-0.45,1.39c-0.09-0.02-0.19-0.04-0.28-0.06
				c-0.02-0.17-0.06-0.33-0.06-0.5c0-5.23,0.02-10.46,0.02-15.68c0-5.71,0.3-11.39,1.13-17.06c0.59-4.06,0.55-8.22,0.74-12.34
				c0.1-2.2-0.01-4.42,0.17-6.62c0.23-2.91,0.6-5.81,1.01-8.7c0.74-5.23,1.06-10.5,1.12-15.78c0.03-2.3,0.04-4.61,0.06-6.91
				c0-0.19-0.01-0.38,0.01-0.58c0.08-1.37,0.44-1.88,1.4-2c1.29-0.16,2.37,0.49,2.67,1.66
				C1573.69,739.36,1573.72,739.86,1573.68,740.33z M1572.66,692.51c-0.03-0.78,0.48-1.34,1.46-1.47c0.8-0.11,1.63-0.1,2.44-0.1
				c1.49-0.01,2.97-0.02,4.46,0.04c0.94,0.04,1.4,0.5,1.45,1.27c0.06,0.84-0.38,1.47-1.34,1.55c-1.24,0.1-2.49,0.03-3.73,0.03
				c0,0.01,0,0.02,0,0.04c-1.05,0-2.11,0.05-3.16-0.01C1573.19,693.79,1572.69,693.31,1572.66,692.51z M1670.59,754.23
				c-5.16,0.84-10.31,1.74-15.47,2.53c-6.88,1.06-13.63,2.72-20.4,4.31c-5.89,1.39-11.87,2.23-17.87,2.97
				c-3.94,0.49-7.86,0.15-11.65-1.13c-5.52-1.87-9.22-5.64-10.99-11.14c-1.16-3.6-1.96-7.31-2.89-10.98
				c-0.41-1.63-0.74-3.27-1.15-4.9c-1.27-5.07-5.16-7.68-10.31-6.95c-0.33,0.05-0.67,0.09-1,0.14c-1.69,0.24-2.38-0.21-2.78-1.9
				c-0.59-2.49-0.79-5.02-0.76-7.57c0.05-3.9,0.72-7.73,1.59-11.52c0.37-1.62,0.83-2.03,2.51-2.29c0.85-0.13,1.72-0.18,2.56-0.36
				c3.91-0.82,5.67-2.83,6.01-6.8c0.11-1.32,0.36-2.65,0.34-3.97c-0.02-1.82-0.19-3.64-0.38-5.45c-0.1-0.95,0.08-1.75,0.5-2.61
				c0.48-0.97,0.8-2.05,0.99-3.11c0.21-1.16,0.1-1.21,1.32-1.45c2.02-0.4,4.04-0.83,6.08-1.11c11.59-1.59,23.18-3.19,34.79-4.7
				c9.8-1.27,19.61-2.43,29.41-3.63c1.34-0.17,1.71,0.08,1.91,1.45c0.97,6.45,1.93,12.9,2.9,19.35c1,6.73,2.01,13.47,3.01,20.2
				c1.01,6.73,2.03,13.47,3.03,20.2c0.92,6.17,1.83,12.33,2.75,18.5c0.06,0.41,0.09,0.83,0.14,1.34
				C1673.32,753.85,1671.95,754.01,1670.59,754.23z M1679.38,663.43c0.08,0.38,0.22,0.64,0.14,0.74c-0.81,1.04-1.66,2.06-2.49,3.08
				C1676.63,665.24,1678.32,664.71,1679.38,663.43z M1684.98,674.33c-0.08,0.05-0.17,0.09-0.26,0.12c-2.07,0.61-4.15,1.15-6.33,0.65
				c-0.14-0.03-0.28-0.06-0.41-0.12c-0.08-0.04-0.14-0.12-0.35-0.3c0.84-0.93,1.81-1.53,2.9-1.9c1.17-0.4,2.37-0.72,3.57-1.03
				c0.85-0.22,1.31,0,1.55,0.59C1685.95,673.1,1685.66,673.95,1684.98,674.33z M1688.73,645.7c-1.01-0.06-1.7,0.35-2.33,1.14
				c-1.18,1.47-2.8,1.76-4.64,1.06c-0.92-0.35-1.85-0.41-2.82-0.17c-2.58,0.63-3.3-0.49-3.89-2.33c-0.12-0.36-0.19-0.75-0.22-1.13
				c-0.11-1.18-0.19-2.35-0.29-3.66c1.03,0.55,1.35,1.44,1.6,2.36c0.14,0.51,0.19,1.04,0.32,1.54c0.45,1.69,1.47,2.32,3.24,2
				c2.16-0.39,4.32-0.82,6.49-1.22c0.66-0.12,1.32-0.27,1.98-0.32c0.22-0.02,0.46,0.23,0.69,0.35L1688.73,645.7z"/>
			<g>
				<path class="st11" d="M1424.69,789.7c-0.3-0.15-0.59-0.31-0.89-0.45c-1.11-0.51-2.16-1.12-3.1-1.89
					c-1.31-1.08-2.22-2.44-2.8-4.03c-0.7-1.94-0.89-3.94-0.81-5.98c0.09-2.31,0.87-4.39,2.11-6.31c0.81-1.26,1.77-2.4,2.77-3.52
					c3.19-3.57,6.17-7.3,9.03-11.14c0.94-1.25,1.94-2.45,3.11-3.5c1.61-1.46,3.44-2.51,5.59-2.93c2.26-0.44,4.5-0.33,6.68,0.45
					c1.8,0.64,3.28,1.75,4.48,3.23c0.86,1.05,1.58,2.2,2.32,3.33c0.92,1.38,1.84,2.76,2.9,4.03c1.35,1.61,2.91,2.97,4.76,3.99
					c0.76,0.42,1.54,0.81,2.26,1.28c2.82,1.85,4.68,4.41,5.57,7.66c0.35,1.27,0.66,2.56,0.83,3.87c0.1,0.77,0.2,1.54,0.08,2.32
					c-0.03,0.19-0.05,0.38-0.08,0.57c-0.07,0.22-0.15,0.44-0.22,0.66c-0.05,0.08-0.11,0.15-0.15,0.23c-0.22,0.6-0.58,1.11-0.98,1.59
					c-1.22,1.48-2.71,2.63-4.46,3.41c-1.45,0.65-2.95,1.11-4.54,1.2c-1.02,0.06-2.03-0.07-3.04-0.2c-2.86-0.39-5.71-0.77-8.57-1.16
					c-2.21-0.3-4.41-0.22-6.59,0.27c-1.78,0.4-3.42,1.13-4.98,2.07c-2.87,1.73-5.94,2.26-9.22,1.53c-0.25-0.05-0.5-0.08-0.74-0.13
					C1425.56,790,1425.13,789.85,1424.69,789.7z"/>
				<path class="st11" d="M1415.33,734.48c0.08-0.09,0.18-0.18,0.23-0.28c0.39-0.75,0.76-1.51,1.15-2.26
					c0.09-0.17,0.22-0.32,0.37-0.45c0.19-0.17,0.35-0.15,0.5,0.05c0.08,0.11,0.14,0.24,0.2,0.36c0.75,1.54,1.24,3.17,1.63,4.83
					c0.09,0.39,0,0.59-0.37,0.76c-1.14,0.53-2.33,0.76-3.58,0.53c-0.53-0.09-0.73-0.29-0.65-0.83c0.08-0.62,0.24-1.22,0.36-1.84
					c0.05-0.25,0.07-0.49,0.11-0.74C1415.3,734.57,1415.32,734.53,1415.33,734.48z"/>
				<path class="st11" d="M1445.55,709.9c0.12,0.09,0.24,0.18,0.36,0.26c1.29,0.89,2.4,1.96,3.28,3.26c0.12,0.17,0.22,0.36,0.3,0.55
					c0.09,0.22,0.03,0.35-0.19,0.45c-0.13,0.06-0.28,0.1-0.43,0.14c-0.65,0.15-1.31,0.1-1.96-0.01c-0.22-0.04-0.43-0.09-0.65-0.14
					c-0.41-0.1-0.72-0.33-0.91-0.69c-0.54-1.02-0.78-2.1-0.65-3.25c0.01-0.06,0.03-0.11,0.04-0.17c0.07-0.29,0.23-0.47,0.54-0.49
					C1445.38,709.84,1445.46,709.87,1445.55,709.9z"/>
				<path class="st11" d="M1475.05,756.36c-0.85,2.46-2.43,4.37-4.51,5.88c-0.99,0.72-2.1,1.21-3.29,1.52
					c-2.02,0.52-3.95,0.28-5.8-0.65c-1.52-0.76-2.81-1.78-3.81-3.16c-1.37-1.88-1.86-3.98-1.54-6.28c0.27-1.9,0.74-3.75,1.33-5.57
					c0.55-1.7,1.15-3.38,1.72-5.07c0.58-1.72,1.38-3.34,2.36-4.86c0.37-0.57,0.76-1.13,1.18-1.67c0.88-1.12,2.03-1.42,3.38-1.06
					c1.35,0.37,2.54,1.02,3.46,2.09c1.05,1.22,2.1,2.45,2.98,3.79c1.18,1.79,2.07,3.72,2.74,5.76c0.38,1.16,0.56,2.36,0.56,3.59
					c0,1.75-0.1,3.5-0.59,5.19C1475.17,756.03,1475.11,756.19,1475.05,756.36z"/>
				<path class="st11" d="M1458.34,737.2c-1.27,3.01-3.33,5.39-6.57,6.58c-1.69,0.62-3.38,0.56-5.04-0.17
					c-1.63-0.72-2.76-1.95-3.57-3.51c-0.88-1.69-1.19-3.5-1.17-5.38c0.03-3.48,0.08-6.97,0.13-10.45c0.02-1.37,0.06-2.73,0.11-4.1
					c0.02-0.59,0.13-1.17,0.32-1.74c0.32-0.93,0.86-1.68,1.73-2.17c1.06-0.6,2.17-0.93,3.39-0.68c0.54,0.11,1.04,0.31,1.53,0.56
					c0.81,0.4,1.59,0.85,2.29,1.43c0.44,0.36,0.83,0.77,1.18,1.22c1.1,1.45,1.99,3.02,2.81,4.63c0.99,1.94,1.83,3.95,2.53,6.02
					c0.59,1.75,0.9,3.54,0.78,5.4c-0.03,0.4-0.08,0.81-0.16,1.2C1458.58,736.4,1458.46,736.74,1458.34,737.2z"/>
				<path class="st11" d="M1438.45,739.37c-0.4,1.23-1.05,2.27-2.03,3.08c-1.48,1.23-3.18,1.64-5.07,1.32
					c-2.08-0.36-3.78-1.42-5.24-2.88c-2.51-2.5-3.77-5.59-4.03-9.1c-0.14-1.82,0.1-3.61,0.71-5.33c0.39-1.11,0.92-2.16,1.68-3.06
					c1.26-1.5,2.54-2.98,3.83-4.44c0.68-0.77,1.45-1.43,2.31-1.99c0.49-0.32,0.99-0.6,1.55-0.78c1.33-0.44,2.47-0.07,3.31,1.06
					c0.42,0.57,0.69,1.2,0.92,1.86c0.16,0.45,0.31,0.9,0.42,1.36c0.74,3.04,1.41,6.09,1.88,9.19c0.36,2.39,0.47,4.79,0.27,7.2
					C1438.88,737.72,1438.73,738.57,1438.45,739.37z"/>
				<path class="st11" d="M1411.77,746.55c0.53-1.62,1.56-3.56,2.8-5.4c0.3-0.44,0.6-0.88,0.92-1.3c0.27-0.36,0.59-0.66,0.98-0.87
					c1.03-0.56,2.05-0.48,3.03,0.13c0.79,0.49,1.49,1.09,2.15,1.75c1.56,1.54,2.98,3.21,4.21,5.03c0.36,0.54,0.72,1.1,0.94,1.7
					c0.45,1.25,0.97,2.48,1.26,3.79c0.33,1.48,0.46,2.97,0.2,4.48c-0.39,2.24-1.41,4.15-3.04,5.73c-1.12,1.09-2.38,1.96-3.87,2.46
					c-1.94,0.66-3.81,0.48-5.6-0.52c-0.57-0.32-1.17-0.62-1.7-1c-1.34-0.98-2.22-2.31-2.78-3.86c-0.59-1.61-0.78-3.28-0.79-4.98
					C1410.45,751.4,1410.85,749.18,1411.77,746.55z"/>
				<path class="st11" d="M1463.29,729.84c0.21-0.65,0.38-0.71,0.92-0.34c1.08,0.75,1.93,1.72,2.69,2.77
					c0.22,0.31,0.43,0.63,0.63,0.96c0.21,0.35,0.14,0.53-0.25,0.64c-0.24,0.07-0.5,0.12-0.75,0.15c-0.98,0.13-1.96,0.09-2.94,0
					c-0.4-0.04-0.53-0.17-0.58-0.57C1462.86,732.23,1462.96,731.02,1463.29,729.84z"/>
				<path class="st11" d="M1431.69,715.03c-0.23-0.08-0.29-0.19-0.25-0.41c0.02-0.08,0.04-0.16,0.08-0.23
					c0.65-1.13,1.3-2.27,1.97-3.39c0.17-0.29,0.39-0.54,0.59-0.81c0.07-0.09,0.15-0.18,0.24-0.25c0.19-0.15,0.34-0.13,0.47,0.07
					c0.07,0.11,0.12,0.23,0.16,0.35c0.26,0.88,0.55,1.75,0.76,2.64c0.11,0.45,0.08,0.94,0.1,1.41c0.01,0.28-0.17,0.45-0.42,0.52
					c-0.2,0.06-0.41,0.09-0.61,0.12c-0.96,0.14-1.91,0.13-2.87,0.03C1431.82,715.06,1431.74,715.04,1431.69,715.03z"/>
			</g>
		</g>
		<path class="st11" d="M559.77,820.44l21.15,46.44c-28.9,26.83-70.68,40.75-108.35,40.75C373,907.63,292,828.18,292,730.15
			c0-98.02,81-177.47,180.57-177.47c37.66,0,79.45,13.41,108.35,40.24l-21.15,46.43c-23.74-24.24-51.08-37.14-90.29-37.14
			c-70.68,0-127.95,57.27-127.95,127.95S398.8,858.1,469.48,858.1C508.69,858.1,536.03,845.2,559.77,820.44z"/>
		<path class="st11" d="M613.78,556.8h49.52v346.7h-49.52V556.8z M691.57,903.51v-49.53h112.07v49.53H691.57z"/>
		<path class="st11" d="M1071.57,556.8V750.8c0,91.32-41.28,156.84-132.08,156.84c-92.86,0-132.07-65.53-132.07-156.84V556.8h49.53
			v210.5c0,53.66,30.44,90.8,82.54,90.8c51.59,0,82.55-37.14,82.55-90.8V556.8H1071.57z"/>
		<path class="st11" d="M1351,799.29c0,59.85-41.79,104.22-111.44,104.22h-127.95v-49.54h119.7c42.82,0,70.17-17.54,70.17-55.72
			c0-38.18-27.34-55.72-70.17-55.72h-119.7v-49.53h111.44c39.21,0,61.91-13.41,61.91-43.34c0-29.41-22.7-43.34-61.91-43.34h-111.44
			V556.8h103.7c74.81,0,119.18,30.96,119.18,90.81c0,34.57-18.57,60.87-41.28,69.64C1333.97,727.06,1351,764.72,1351,799.29z"/>
		<linearGradient id="SVGID_9_" gradientUnits="userSpaceOnUse" x1="292.9822" y1="1074.4163" x2="504.8404" y2="1074.4163">
			<stop  offset="0" style="stop-color:#FFFFFF"/>
			<stop  offset="1" style="stop-color:#808080"/>
		</linearGradient>
		<path class="st12" d="M504.84,1074.41c0,72.44-48.29,130.86-133.58,130.86h-78.28v-37.39H381c51.02,0,86.46-41.68,86.46-93.47
			s-35.44-93.47-86.46-93.47h-88.01v-37.39h78.28C458.5,943.56,504.84,1001.98,504.84,1074.41z"/>
		<linearGradient id="SVGID_10_" gradientUnits="userSpaceOnUse" x1="518.0269" y1="1074.4163" x2="667.574" y2="1074.4163">
			<stop  offset="0" style="stop-color:#FFFFFF"/>
			<stop  offset="1" style="stop-color:#808080"/>
		</linearGradient>
		<path class="st13" d="M667.57,943.56v37.39H518.03v-37.39H667.57z M518.03,1093.11v-36.85h130.85v36.85H518.03z M555.41,1167.88
			h112.16v37.39H518.03v-37.52h37.39V1167.88z"/>
		<linearGradient id="SVGID_11_" gradientUnits="userSpaceOnUse" x1="683.0342" y1="1074.4163" x2="826.3493" y2="1074.4163">
			<stop  offset="0" style="stop-color:#FFFFFF"/>
			<stop  offset="1" style="stop-color:#808080"/>
		</linearGradient>
		<path class="st14" d="M683.03,943.56h37.38v261.71h-37.38V943.56z M741.75,1205.27v-37.39h84.59v37.39H741.75z"/>
		<linearGradient id="SVGID_12_" gradientUnits="userSpaceOnUse" x1="846.4066" y1="1074.4163" x2="883.7955" y2="1074.4163">
			<stop  offset="0" style="stop-color:#FFFFFF"/>
			<stop  offset="1" style="stop-color:#808080"/>
		</linearGradient>
		<path class="st15" d="M846.41,1205.27V943.56h37.39v261.71H846.41z"/>
		<linearGradient id="SVGID_13_" gradientUnits="userSpaceOnUse" x1="900.5558" y1="1077.5337" x2="1137.339" y2="1077.5337">
			<stop  offset="0" style="stop-color:#FFFFFF"/>
			<stop  offset="1" style="stop-color:#808080"/>
		</linearGradient>
		<path class="st16" d="M1019.02,1123.31l19.27,44.42l-19.34,43.77L900.56,943.56h40.5l77.89,179.92L1019.02,1123.31z
			 M1137.34,943.56l-87.72,198.52l-19.44-44.53l66.66-153.99H1137.34z"/>
		<linearGradient id="SVGID_14_" gradientUnits="userSpaceOnUse" x1="1150.0599" y1="1074.4163" x2="1299.6071" y2="1074.4163">
			<stop  offset="0" style="stop-color:#FFFFFF"/>
			<stop  offset="1" style="stop-color:#808080"/>
		</linearGradient>
		<path class="st17" d="M1299.61,943.56v37.39h-149.55v-37.39H1299.61z M1150.06,1093.11v-36.85h130.85v36.85H1150.06z
			 M1187.45,1167.88h112.16v37.39h-149.55v-37.52h37.39V1167.88z"/>
		<linearGradient id="SVGID_15_" gradientUnits="userSpaceOnUse" x1="1317.6393" y1="1074.4135" x2="1504.5753" y2="1074.4135">
			<stop  offset="0" style="stop-color:#FFFFFF"/>
			<stop  offset="1" style="stop-color:#808080"/>
		</linearGradient>
		<path class="st18" d="M1504.58,1205.27h-43.62l-65.04-90.35h-40.89v90.35h-37.39v-127.74h93.08c27.26,0,50.24-14.02,50.24-47.9
			c0-34.27-22.2-48.68-49.46-48.68h-93.86v-37.39h81c68.15,0,99.7,34.27,99.7,83.73c0,40.51-22.2,73.6-61.15,84.12L1504.58,1205.27z
			"/>
		<linearGradient id="SVGID_16_" gradientUnits="userSpaceOnUse" x1="1487.675" y1="1074.4163" x2="1712" y2="1074.4163">
			<stop  offset="0" style="stop-color:#FFFFFF"/>
			<stop  offset="1" style="stop-color:#808080"/>
		</linearGradient>
		<path class="st19" d="M1529.74,943.56l88.79,155.78v105.93h-37.39v-105.93l-93.47-155.78H1529.74z M1712,943.56l-81.94,136.56
			l-19.78-34.49l59.66-102.07H1712z"/>
		<g>
			<path class="st11" d="M331.47,1380.76c-1.5,1.14-3.11,2.13-4.83,2.97c-1.72,0.84-3.61,1.47-5.67,1.9
				c-2.05,0.43-4.32,0.65-6.81,0.65c-3.9,0-7.5-0.71-10.8-2.13c-3.3-1.42-6.15-3.36-8.56-5.82c-2.41-2.46-4.3-5.36-5.67-8.71
				c-1.37-3.35-2.05-6.94-2.05-10.8c0-3.8,0.67-7.38,2.01-10.72c1.34-3.35,3.23-6.27,5.67-8.78c2.43-2.51,5.32-4.49,8.67-5.93
				c3.35-1.45,7.05-2.17,11.1-2.17c2.43,0,4.65,0.2,6.65,0.61c2,0.41,3.84,0.98,5.51,1.71c1.67,0.74,3.22,1.61,4.64,2.62
				c1.42,1.01,2.76,2.13,4.03,3.35l-6.01,6.92c-2.13-1.98-4.39-3.57-6.77-4.79c-2.38-1.22-5.1-1.82-8.14-1.82
				c-2.54,0-4.88,0.49-7.03,1.48c-2.16,0.99-4.02,2.33-5.59,4.03c-1.57,1.7-2.79,3.69-3.65,5.97c-0.86,2.28-1.29,4.74-1.29,7.38
				c0,2.64,0.43,5.11,1.29,7.42c0.86,2.31,2.08,4.32,3.65,6.05c1.57,1.72,3.43,3.08,5.59,4.07c2.15,0.99,4.5,1.48,7.03,1.48
				c3.24,0,6.03-0.62,8.37-1.86c2.33-1.24,4.64-2.93,6.92-5.06l6.01,6.08C334.4,1378.32,332.97,1379.62,331.47,1380.76z"/>
			<path class="st11" d="M410.52,1369.32c-1.37,3.35-3.3,6.27-5.78,8.78c-2.48,2.51-5.43,4.5-8.82,5.97
				c-3.4,1.47-7.15,2.21-11.26,2.21c-4.11,0-7.86-0.72-11.25-2.17c-3.4-1.44-6.31-3.41-8.75-5.89c-2.43-2.48-4.33-5.4-5.7-8.75
				c-1.37-3.35-2.05-6.89-2.05-10.65c0-3.75,0.68-7.3,2.05-10.65s3.3-6.27,5.78-8.78c2.48-2.51,5.42-4.5,8.82-5.97
				c3.4-1.47,7.15-2.21,11.25-2.21c4.11,0,7.86,0.72,11.26,2.17c3.4,1.45,6.31,3.41,8.75,5.89c2.43,2.48,4.33,5.4,5.7,8.75
				c1.37,3.35,2.05,6.9,2.05,10.65C412.58,1362.42,411.89,1365.97,410.52,1369.32z M401.44,1351.49c-0.89-2.31-2.13-4.32-3.73-6.05
				c-1.6-1.72-3.51-3.09-5.74-4.11c-2.23-1.01-4.66-1.52-7.3-1.52c-2.64,0-5.06,0.49-7.26,1.48c-2.21,0.99-4.09,2.33-5.67,4.03
				c-1.57,1.7-2.8,3.7-3.69,6.01c-0.89,2.31-1.33,4.75-1.33,7.34c0,2.59,0.44,5.03,1.33,7.34c0.89,2.31,2.13,4.32,3.73,6.05
				c1.6,1.72,3.51,3.09,5.74,4.11c2.23,1.02,4.66,1.52,7.3,1.52c2.64,0,5.06-0.49,7.26-1.48c2.21-0.99,4.09-2.33,5.67-4.03
				c1.57-1.7,2.8-3.7,3.69-6.01c0.89-2.31,1.33-4.75,1.33-7.34S402.32,1353.79,401.44,1351.49z"/>
			<path class="st11" d="M476.23,1332.13h9.28v53.23h-7.82l-29.29-37.87v37.87h-9.28v-53.23h8.65l28.46,36.81V1332.13z"/>
			<path class="st11" d="M536.92,1385.37h-9.43v-44.56H510.6v-8.67h43.2v8.67h-16.88V1385.37z"/>
			<path class="st11" d="M588.7,1332.13v53.23h-9.28v-53.23H588.7z"/>
			<path class="st11" d="M661.29,1381.18c-1.6,1.01-3.32,1.9-5.17,2.66c-1.85,0.76-3.84,1.36-5.97,1.79
				c-2.13,0.43-4.36,0.65-6.69,0.65c-4.16,0-7.94-0.7-11.33-2.09c-3.4-1.39-6.3-3.32-8.71-5.78c-2.41-2.46-4.27-5.36-5.59-8.71
				c-1.32-3.35-1.98-6.97-1.98-10.87c0-3.75,0.67-7.3,2.01-10.65c1.34-3.35,3.23-6.27,5.67-8.78c2.43-2.51,5.34-4.5,8.71-5.97
				c3.37-1.47,7.06-2.21,11.07-2.21c2.33,0,4.45,0.17,6.35,0.49c1.9,0.33,3.66,0.8,5.29,1.41c1.62,0.61,3.16,1.36,4.6,2.24
				c1.45,0.89,2.85,1.91,4.22,3.08l-5.93,7.07c-1.02-0.86-2.05-1.65-3.12-2.36c-1.06-0.71-2.18-1.3-3.35-1.79
				c-1.17-0.48-2.45-0.86-3.84-1.14c-1.4-0.28-2.93-0.42-4.6-0.42c-2.43,0-4.7,0.5-6.81,1.49c-2.1,0.99-3.93,2.35-5.48,4.08
				c-1.55,1.73-2.76,3.73-3.65,6.02c-0.89,2.29-1.33,4.72-1.33,7.31c0,2.74,0.43,5.28,1.29,7.62c0.86,2.34,2.09,4.36,3.69,6.06
				c1.6,1.7,3.5,3.04,5.7,4c2.21,0.96,4.68,1.45,7.41,1.45c2.53,0,4.91-0.37,7.11-1.11c2.21-0.74,4.12-1.72,5.74-2.94v-10.02H643
				v-8.14h22.66v22.36C664.34,1379.1,662.89,1380.17,661.29,1381.18z"/>
			<path class="st11" d="M744.3,1369.32c-1.37,3.35-3.3,6.27-5.78,8.78c-2.48,2.51-5.43,4.5-8.82,5.97
				c-3.4,1.47-7.15,2.21-11.26,2.21c-4.11,0-7.86-0.72-11.25-2.17c-3.4-1.44-6.31-3.41-8.75-5.89c-2.43-2.48-4.33-5.4-5.7-8.75
				c-1.37-3.35-2.05-6.89-2.05-10.65c0-3.75,0.68-7.3,2.05-10.65c1.37-3.35,3.3-6.27,5.78-8.78c2.48-2.51,5.42-4.5,8.82-5.97
				c3.4-1.47,7.15-2.21,11.25-2.21c4.11,0,7.86,0.72,11.26,2.17c3.4,1.45,6.31,3.41,8.75,5.89c2.43,2.48,4.33,5.4,5.7,8.75
				c1.37,3.35,2.05,6.9,2.05,10.65C746.35,1362.42,745.67,1365.97,744.3,1369.32z M735.21,1351.49c-0.89-2.31-2.13-4.32-3.73-6.05
				s-3.51-3.09-5.74-4.11c-2.23-1.01-4.66-1.52-7.3-1.52c-2.64,0-5.06,0.49-7.26,1.48c-2.21,0.99-4.09,2.33-5.67,4.03
				c-1.57,1.7-2.8,3.7-3.69,6.01c-0.89,2.31-1.33,4.75-1.33,7.34c0,2.59,0.44,5.03,1.33,7.34c0.89,2.31,2.13,4.32,3.73,6.05
				c1.6,1.72,3.51,3.09,5.74,4.11c2.23,1.02,4.66,1.52,7.3,1.52c2.64,0,5.06-0.49,7.26-1.48c2.21-0.99,4.09-2.33,5.67-4.03
				c1.57-1.7,2.8-3.7,3.69-6.01c0.89-2.31,1.33-4.75,1.33-7.34S736.1,1353.79,735.21,1351.49z"/>
			<path class="st11" d="M850.31,1340.57h-30.12v13.69h26.69v8.44h-26.69v14.22h30.5v8.44h-39.77v-53.23h39.39V1340.57z"/>
			<path class="st11" d="M914.19,1332.13h9.28v53.23h-7.82l-29.29-37.87v37.87h-9.28v-53.23h8.65l28.46,36.81V1332.13z"/>
			<path class="st11" d="M1029.78,1340.57h-30.12v13.69h26.69v8.44h-26.69v14.22h30.5v8.44h-39.77v-53.23h39.39V1340.57z"/>
			<path class="st11" d="M1056.55,1332.13h9.28v44.79h27.99v8.44h-37.26V1332.13z"/>
			<path class="st11" d="M1198.87,1380.76c-1.5,1.14-3.11,2.13-4.83,2.97c-1.72,0.84-3.61,1.47-5.67,1.9
				c-2.05,0.43-4.32,0.65-6.81,0.65c-3.9,0-7.5-0.71-10.8-2.13c-3.3-1.42-6.15-3.36-8.56-5.82c-2.41-2.46-4.3-5.36-5.66-8.71
				c-1.37-3.35-2.05-6.94-2.05-10.8c0-3.8,0.67-7.38,2.02-10.72c1.34-3.35,3.23-6.27,5.66-8.78c2.43-2.51,5.32-4.49,8.67-5.93
				c3.35-1.45,7.05-2.17,11.1-2.17c2.43,0,4.65,0.2,6.65,0.61c2,0.41,3.84,0.98,5.51,1.71c1.67,0.74,3.22,1.61,4.64,2.62
				c1.42,1.01,2.76,2.13,4.03,3.35l-6.01,6.92c-2.13-1.98-4.39-3.57-6.77-4.79c-2.38-1.22-5.1-1.82-8.14-1.82
				c-2.54,0-4.88,0.49-7.03,1.48c-2.16,0.99-4.02,2.33-5.59,4.03c-1.57,1.7-2.79,3.69-3.65,5.97c-0.86,2.28-1.29,4.74-1.29,7.38
				c0,2.64,0.43,5.11,1.29,7.42c0.86,2.31,2.08,4.32,3.65,6.05c1.57,1.72,3.43,3.08,5.59,4.07c2.15,0.99,4.5,1.48,7.03,1.48
				c3.24,0,6.03-0.62,8.37-1.86c2.33-1.24,4.64-2.93,6.92-5.06l6.01,6.08C1201.8,1378.32,1200.37,1379.62,1198.87,1380.76z"/>
			<path class="st11" d="M1279.14,1385.37h-9.89l-5.4-12.85h-25.17l-5.48,12.85h-9.58l23.42-53.61h8.67L1279.14,1385.37z
				 M1251.23,1342.93l-9.13,21.29h18.33L1251.23,1342.93z"/>
			<path class="st11" d="M1329.71,1372.29h-0.3l-16.66-24.94v38.02h-9.28v-53.23h9.96l16.2,25.17l16.2-25.17h9.96v53.23h-9.28
				v-38.18L1329.71,1372.29z"/>
			<path class="st11" d="M1394.51,1332.13v53.23h-9.28v-53.23H1394.51z"/>
			<path class="st11" d="M1461.13,1332.13h9.28v53.23h-7.82l-29.29-37.87v37.87h-9.28v-53.23h8.65l28.46,36.81V1332.13z"/>
			<path class="st11" d="M1550.56,1369.32c-1.37,3.35-3.3,6.27-5.78,8.78c-2.48,2.51-5.43,4.5-8.82,5.97
				c-3.4,1.47-7.15,2.21-11.25,2.21c-4.11,0-7.86-0.72-11.26-2.17c-3.4-1.44-6.31-3.41-8.75-5.89c-2.43-2.48-4.33-5.4-5.7-8.75
				c-1.37-3.35-2.05-6.89-2.05-10.65c0-3.75,0.68-7.3,2.05-10.65s3.29-6.27,5.78-8.78c2.48-2.51,5.42-4.5,8.82-5.97
				c3.4-1.47,7.15-2.21,11.26-2.21c4.11,0,7.86,0.72,11.26,2.17c3.4,1.45,6.31,3.41,8.75,5.89c2.43,2.48,4.33,5.4,5.7,8.75
				s2.05,6.9,2.05,10.65C1552.61,1362.42,1551.93,1365.97,1550.56,1369.32z M1541.47,1351.49c-0.89-2.31-2.13-4.32-3.73-6.05
				c-1.6-1.72-3.51-3.09-5.74-4.11c-2.23-1.01-4.67-1.52-7.3-1.52c-2.64,0-5.06,0.49-7.26,1.48c-2.21,0.99-4.09,2.33-5.67,4.03
				c-1.57,1.7-2.8,3.7-3.69,6.01c-0.89,2.31-1.33,4.75-1.33,7.34c0,2.59,0.44,5.03,1.33,7.34c0.89,2.31,2.13,4.32,3.73,6.05
				c1.6,1.72,3.51,3.09,5.74,4.11c2.23,1.02,4.66,1.52,7.3,1.52c2.64,0,5.06-0.49,7.26-1.48c2.21-0.99,4.09-2.33,5.67-4.03
				c1.57-1.7,2.8-3.7,3.69-6.01c0.89-2.31,1.33-4.75,1.33-7.34S1542.36,1353.79,1541.47,1351.49z"/>
		</g>
		<g>
			<path class="st11" d="M1586.48,1377.06c0.79-0.91,1.69-1.73,2.44-2.68c3.42-4.35,5.84-9.3,8.4-14.15
				c0.26-0.49,0.23-0.88-0.34-1.36c-1.7-1.46-3.39-2.96-4.83-4.66c-1.3-1.53-0.85-2.76,1.04-3.33c1.63-0.49,3.32-0.74,4.99-1.09
				c0.62-0.13,1.24-0.27,1.86-0.4c-1.92-1.01-3.9-1.62-5.71-2.56c-3.41-1.76-6.88-2.91-10.8-2.46c-1.36,0.16-2.68-0.68-2.87-1.92
				c-0.31-2.08-0.08-4.24-0.08-6.33c0.55,0.04,1.12,0.13,1.68,0.1c0.18-0.01,0.35-0.33,0.53-0.5c-0.17-0.16-0.34-0.46-0.52-0.46
				c-0.75-0.02-1.06-0.36-1.02-1.09c0.01-0.18-0.07-0.51-0.15-0.52c-1.08-0.22-0.72-1.08-0.72-1.69c0-8.48,0.1-16.96,0.02-25.44
				c-0.02-2.65,1.49-3.92,3.89-3.9c11.29,0.08,22.59,0.08,33.88,0c2.52-0.02,4,1.25,3.98,3.93c-0.09,11.25-0.06,22.51-0.01,33.77
				c0.01,1.76-0.35,3.18-2,4.3c1.74,0.38,3.49,0.76,5.21,1.14c0.35-1.2,0.77-2.08,0.83-2.99c0.22-3.43,0.47-6.86,0.42-10.29
				c-0.06-3.63-0.52-7.24-0.67-10.87c-0.1-2.55,0.93-4.7,2.94-6.3c1.79-1.42,3.63-2.77,5.44-4.17c0.9-0.69,1-1.44,0.08-1.78
				c-1.5-0.55-1.8-1.81-2.27-3.03c-1.29-3.31-1.51-6.57,0.44-9.75c3.23-5.28,11.27-5.47,14.85-0.44c1.47,2.06,1.49,4.53,2.4,6.73
				c0.2,0.49,0.34,1.08,0.28,1.6c-0.24,2.17-0.08,4.56-2.64,5.65c-0.37,1.29-1.44,1.33-2.51,1.44c-0.41,0.04-0.82,0.22-1.2,0.42
				c-2.17,1.15-3.12,3.15-1.76,4.79c1.75,2.09,2.33,4.42,2.17,7.05c-0.03,0.52,0.09,1.08,0.28,1.56c0.67,1.74,1.5,3.42,2.07,5.18
				c0.32,0.97,0.84,1.24,1.74,1.38c1.57,0.24,3.11,0.66,4.68,0.92c1.96,0.32,3.97,1.09,5.78-0.55c0.44-0.4,1.08-0.59,1.65-0.83
				c1.01-0.45,1.62-0.1,1.81,0.93c0.05,0.26,0.34,0.46,0.53,0.7c0.17-0.25,0.53-0.53,0.49-0.75c-0.13-0.74-0.39-1.45-0.65-2.34
				c0.76-0.43,1.71-0.89,2.56-1.49c0.37-0.26,0.79-0.81,0.77-1.21c-0.06-1.08-0.22-2.18-0.55-3.21c-0.67-2.14-0.08-2.17-2.59-1.39
				c-1.27,0.4-2.01,0.2-2.39-1.08c-0.34-1.16-0.39-2.44-0.36-3.66c0.05-1.53,0.56-1.83,1.99-1.49c2.01,0.47,3.11,1.93,3.63,3.74
				c0.7,2.42,1.15,4.9,1.73,7.44c2.63-0.38,5.39-1.04,7.99,1.04c2.7,2.16,2.94,4.91,2.48,8.09c-0.77,0.27-1.75,0.62-2.72,0.97
				c0.01,0.12,0.02,0.25,0.03,0.37c0.33,0.15,0.65,0.32,0.99,0.45c0.98,0.37,2.01,0.63,2.94,1.11c5.36,2.78,10.29,6.2,14.81,10.18
				c1.9,1.68,3.57,3.65,5.17,5.63c1.09,1.35,0.87,2.23-0.33,3.5c-0.37,0.39-0.7,0.8-1.04,1.19c1.76,0.53,3.48,0.91,5.09,1.56
				c4.01,1.62,6.93,4.47,8.77,8.38c0.55,1.16,0.13,1.76-1.17,1.79c-0.81,0.02-1.61,0-2.61,0c8.58,7.36,7.37,17.31,2.96,22.86
				c-4.44,5.59-11.9,7.65-18.83,4.82c-3.91-1.6-6.77-4.51-8.42-8.41c-1.66-3.94-1.71-8.01-0.16-12.21c-0.33,0.23-0.52,0.3-0.63,0.44
				c-1.45,1.96-2.84,3.97-4.35,5.88c-0.73,0.91-1.58,1.94-2.6,2.36c-1.37,0.56-2.96,0.81-4.45,0.76c-4.33-0.13-8.66-0.37-12.98-0.74
				c-7.12-0.61-14.22-1.35-21.33-2.06c-0.37-0.04-0.69-0.37-1.05-0.54c-0.31-0.14-0.75-0.43-0.93-0.32
				c-0.38,0.22-0.94,0.73-0.88,1.01c0.29,1.43-0.43,1.72-1.61,1.71c-0.43,0-0.85,0.16-1.28,0.15c-2.07-0.02-4.15,0.81-6.26-0.14
				c-0.28,1-0.48,2.03-0.86,2.99c-3.96,10.09-15.73,13.28-24.04,7.56c-7.03-4.84-9.07-14.27-4.6-21.49c2.29-3.7,5.57-6.16,9.89-7.15
				c2-0.46,3.98-0.8,6.02-0.3c0.91,0.23,1.53,0.04,1.59-1.07c0.02-0.38,0.29-0.74,0.3-1.11c0.01-0.33-0.09-0.8-0.32-0.97
				c-2.76-2.09-5.89-2.31-9.1-1.51c-1.88,0.47-3.03,2.08-4.28,3.44c-3.32,3.65-6.7,7.25-10.63,10.27c-0.94,0.72-1.88,1.1-3.18,0.14
				C1585.97,1377.87,1586.17,1377.42,1586.48,1377.06z M1642.45,1342.47c-0.01,0.92,0.55,1.14,1.41,1.06
				c5.29-0.45,10.58-0.85,15.87-1.28c2.2-0.18,4.31-0.01,5.48,2.17c0.57,1.06,0.96,2.32,1.07,3.52c0.37,3.81-0.4,7.54-1.16,11.25
				c-0.66,3.23-1.5,6.43-2.26,9.65c-0.53,2.26,0.97,4.89,3.2,5.64c0.99,0.34,1.95,0.76,3.15,1.23c0.65-1.35,1.41-2.69,1.96-4.12
				c1.5-3.86,2.2-7.87,1.87-12.02c-0.45-5.72-2.17-10.99-5.72-15.59c-0.29-0.38-0.41-1.23-0.18-1.6c0.42-0.67,0.16-1-0.27-1.36
				c-1.19-0.99-2.4-1.96-3.6-2.93c-0.12-0.1-0.25-0.22-0.39-0.24c-1.92-0.2-3.84-0.56-5.76-0.54c-4.41,0.05-8.82,0.29-13.22,0.45
				c-0.35,0.01-0.69,0-1.26,0C1642.57,1339.45,1642.47,1340.96,1642.45,1342.47z M1698.03,1376.53c-4.48,0.02-8.25,3.88-8.22,8.41
				c0.03,4.54,3.85,8.32,8.37,8.27c4.56-0.05,8.28-3.81,8.27-8.35C1706.43,1380.3,1702.6,1376.51,1698.03,1376.53z M1609.05,1393.21
				c4.53,0.03,8.4-3.79,8.33-8.32c-0.07-4.77-3.73-8.28-8.3-8.34c-4.28-0.06-8.46,3.57-8.27,8.31
				C1600.6,1389.32,1604.45,1393.18,1609.05,1393.21z M1654.55,1370.55c-0.11-3.85-0.02-7.7-0.01-11.55c0-0.22,0.03-0.44,0.04-0.67
				c-0.12-0.05-0.23-0.1-0.35-0.15c-0.2,0.4-0.6,0.81-0.56,1.19c0.09,1.09-0.33,1.83-1.08,2.56c-1.14,1.1-2.17,2.32-3.28,3.45
				c-0.75,0.76-0.71,1.4-0.18,2.36c1.16,2.13,2.09,4.38,3.14,6.57c0.31,0.66,0.72,1.27,1.22,2.14
				C1654.46,1374.4,1654.61,1372.53,1654.55,1370.55z M1625.12,1366.49c-0.68-0.45-1.24-0.23-1.71,0.39
				c-0.35,0.47-0.73,0.92-1.14,1.34c-0.65,0.68-0.61,1.42,0.26,2.08c0.61,0.47,1.24,1.39,2,0.06c0.53-0.94,1.25-1.77,1.97-2.77
				C1625.97,1367.15,1625.57,1366.78,1625.12,1366.49z M1615.73,1360.77c-1.26,0.76-2.36,3.88-1.98,4.77
				c0.77-0.78,1.57-1.62,2.43-2.4c0.21-0.19,0.61-0.17,0.92-0.24c0,0.39,0.14,0.84-0.01,1.16c-0.28,0.59-0.73,1.1-1.11,1.65
				c0.13,0.1,0.26,0.2,0.39,0.3c0.75-0.9,1.5-1.8,2.32-2.78c-0.68-0.51-1.22-1.25-1.79-1.27c-0.56-0.02-1.15,0.68-2.03,1.26
				C1615.19,1362.26,1615.43,1361.6,1615.73,1360.77z M1627.82,1371.21c-0.56,0.08-1.39,0.19-1.55,0.54
				c-0.18,0.39,0.14,1.16,0.48,1.59c0.43,0.55,1.1,0.83,2.02,0.11c-0.53-0.15-0.92-0.17-1.18-0.36c-0.28-0.2-0.45-0.55-0.66-0.84
				c0.29-0.1,0.58-0.22,0.89-0.27c0.18-0.03,0.39,0.13,0.57,0.1c0.52-0.1,1.03-0.26,1.54-0.4c-0.14-0.53-0.16-1.16-0.47-1.56
				c-0.39-0.51-1.01-0.86-1.78-0.21c0.6,0.35,1.13,0.66,1.66,0.97c-0.07,0.16-0.13,0.32-0.2,0.49
				C1628.7,1371.3,1628.24,1371.15,1627.82,1371.21z M1620.99,1367.38c-0.69,0.62-0.69,0.62-1.49-0.38
				c-0.46,0.55-0.41,0.9,0.17,1.31c0.8,0.56,1.52,0.3,2.3-0.79c0.55-0.77,0.68-1.5-0.16-2.13c-0.71-0.53-1.39-0.25-2.08,0.91
				C1620.18,1366.68,1620.58,1367.02,1620.99,1367.38z M1583.1,1330.62c-0.26,0.04-0.48,0.35-0.71,0.54
				c0.22,0.15,0.44,0.3,0.65,0.47c0.28,0.23,0.56,0.47,0.8,0.74c0.23,0.27,0.39,0.59,0.58,0.88c0.22-0.32,0.43-0.63,0.5-0.73
				C1584.9,1331.09,1584.22,1330.46,1583.1,1330.62z M1660.57,1335.78c0.2-0.03,0.37-0.29,0.55-0.44c-0.16-0.17-0.31-0.47-0.48-0.49
				c-0.62-0.05-1.01-0.24-1.08-0.94c-0.03-0.26-0.31-0.5-0.48-0.75c-0.2,0.27-0.39,0.55-0.45,0.63
				C1658.6,1335.24,1659.41,1335.97,1660.57,1335.78z M1620.21,1364.38c-0.46-0.33-0.84-0.6-1.22-0.87
				c-0.12-0.02-0.24-0.04-0.35-0.06c0.87,1.57-0.61,2.31-0.99,3.44c0.15,0.11,0.29,0.22,0.44,0.33
				C1618.77,1366.3,1619.46,1365.38,1620.21,1364.38z M1626.78,1369.74c0.27-0.41,0.41-0.89,0.62-1.34
				c-0.41,0.32-0.87,0.58-1.21,0.96c-0.48,0.55-0.89,1.17-1.29,1.79c-0.13,0.21-0.13,0.5-0.19,0.75c0.13,0.07,0.25,0.13,0.38,0.2
				C1625.66,1371.32,1626.25,1370.55,1626.78,1369.74z"/>
			<path class="st11" d="M1624.54,1370.35c-0.76,1.34-1.39,0.41-2-0.06c-0.87-0.66-0.91-1.4-0.26-2.08c0.4-0.42,0.78-0.87,1.14-1.34
				c0.47-0.62,1.03-0.84,1.71-0.39c0.45,0.3,0.85,0.67,1.38,1.1C1625.78,1368.58,1625.07,1369.41,1624.54,1370.35z M1622.83,1368.79
				c0.1,0.36,0.14,0.96,0.33,1.01c0.32,0.09,0.75-0.16,1.13-0.26c-0.03-0.25-0.06-0.5-0.09-0.75
				C1623.74,1368.79,1623.29,1368.79,1622.83,1368.79z M1625.04,1367.32c-0.34,0.01-0.67,0.02-1.01,0.02
				c0.15,0.4,0.3,0.79,0.45,1.19c0.18-0.03,0.37-0.05,0.55-0.08C1625.04,1368.08,1625.04,1367.7,1625.04,1367.32z"/>
			<path class="st11" d="M1614.85,1363.22c0.34-0.96,0.58-1.62,0.87-2.44c-1.26,0.76-2.36,3.88-1.98,4.77
				c0.77-0.78,1.57-1.62,2.43-2.4c0.21-0.19,0.61-0.17,0.92-0.24c0,0.39,0.14,0.84-0.01,1.16c-0.28,0.59-0.73,1.1-1.11,1.65
				c0.13,0.1,0.26,0.2,0.39,0.3c0.75-0.9,1.5-1.8,2.32-2.78c-0.68-0.51-1.22-1.25-1.79-1.27
				C1616.32,1361.94,1615.72,1362.64,1614.85,1363.22z"/>
			<path class="st11" d="M1629.14,1371.36c-0.44-0.06-0.89-0.21-1.32-0.15c-0.56,0.08-1.39,0.19-1.55,0.54
				c-0.18,0.39,0.14,1.16,0.48,1.59c0.43,0.55,1.1,0.83,2.02,0.11c-0.53-0.15-0.92-0.17-1.18-0.36c-0.28-0.2-0.45-0.55-0.66-0.84
				c0.29-0.1,0.58-0.22,0.89-0.27c0.18-0.03,0.39,0.13,0.57,0.1c0.52-0.1,1.03-0.26,1.54-0.4c-0.14-0.53-0.16-1.16-0.47-1.56
				c-0.39-0.51-1.01-0.86-1.78-0.21c0.6,0.35,1.13,0.66,1.66,0.97C1629.27,1371.04,1629.2,1371.2,1629.14,1371.36z"/>
			<path class="st11" d="M1619.73,1366.29c0.45,0.38,0.85,0.73,1.26,1.08c-0.69,0.62-0.69,0.62-1.49-0.38
				c-0.46,0.55-0.41,0.9,0.17,1.31c0.8,0.56,1.52,0.3,2.3-0.79c0.55-0.77,0.68-1.5-0.16-2.13
				C1621.09,1364.85,1620.42,1365.14,1619.73,1366.29z"/>
			<path class="st11" d="M1584.91,1332.52c-0.01-1.43-0.69-2.06-1.81-1.89c-0.26,0.04-0.48,0.35-0.71,0.54
				c0.22,0.15,0.44,0.3,0.65,0.47c0.28,0.23,0.56,0.47,0.8,0.74c0.23,0.27,0.39,0.59,0.58,0.88
				C1584.62,1332.93,1584.84,1332.62,1584.91,1332.52z"/>
			<path class="st11" d="M1658.62,1333.79c-0.02,1.45,0.79,2.18,1.94,1.99c0.2-0.03,0.37-0.29,0.55-0.44
				c-0.16-0.17-0.31-0.47-0.48-0.49c-0.62-0.05-1.01-0.24-1.08-0.94c-0.03-0.26-0.31-0.5-0.48-0.75
				C1658.88,1333.43,1658.68,1333.71,1658.62,1333.79z"/>
			<path class="st11" d="M1618.08,1367.22c0.69-0.92,1.38-1.85,2.13-2.84c-0.46-0.33-0.84-0.6-1.22-0.87
				c-0.12-0.02-0.24-0.04-0.35-0.06c0.87,1.57-0.61,2.31-0.99,3.44C1617.78,1367,1617.93,1367.11,1618.08,1367.22z"/>
			<path class="st11" d="M1625.09,1372.1c0.57-0.78,1.17-1.55,1.7-2.36c0.27-0.41,0.41-0.89,0.62-1.34
				c-0.41,0.32-0.87,0.58-1.21,0.96c-0.48,0.55-0.89,1.17-1.29,1.79c-0.13,0.21-0.13,0.5-0.19,0.75
				C1624.83,1371.97,1624.96,1372.03,1625.09,1372.1z"/>
			<path class="st11" d="M1624.2,1368.79c-0.46,0-0.91,0-1.37,0c0.1,0.36,0.14,0.96,0.33,1.01c0.32,0.09,0.75-0.16,1.13-0.26
				C1624.26,1369.29,1624.23,1369.04,1624.2,1368.79z"/>
			<path class="st11" d="M1625.04,1368.46c0-0.38,0-0.76,0-1.13c-0.34,0.01-0.67,0.02-1.01,0.02c0.15,0.4,0.3,0.79,0.45,1.19
				C1624.67,1368.51,1624.85,1368.49,1625.04,1368.46z"/>
			<polygon class="st11" points="1580.32,1324.89 1580.32,1342.44 1594.22,1337.3 1588.85,1327.01 			"/>
		</g>
	</g>
</g>
</svg>
