<?xml version="1.0" encoding="utf-8"?>
<!-- Generator: Adobe Illustrator 24.1.3, SVG Export Plug-In . SVG Version: 6.00 Build 0)  -->
<svg version="1.1" id="Capa_1" xmlns="http://www.w3.org/2000/svg" xmlns:xlink="http://www.w3.org/1999/xlink" x="0px" y="0px"
	 viewBox="0 0 65.34 80.79" style="enable-background:new 0 0 65.34 80.79;" xml:space="preserve">
<style type="text/css">
	.st0{display:none;}
	.st1{display:inline;fill:#FFFFFF;}
	.st2{display:inline;}
	.st3{display:inline;fill:url(#SVGID_1_);}
	.st4{display:inline;fill:url(#SVGID_2_);}
	.st5{display:inline;fill:url(#SVGID_3_);}
	.st6{display:inline;fill:url(#SVGID_4_);}
	.st7{display:inline;fill:url(#SVGID_5_);}
	.st8{display:inline;fill:url(#SVGID_6_);}
	.st9{display:inline;fill:url(#SVGID_7_);}
	.st10{display:inline;fill:url(#SVGID_8_);}
	.st11{fill:#FFFFFF;}
	.st12{fill:url(#SVGID_9_);}
	.st13{fill:url(#SVGID_10_);}
	.st14{fill:url(#SVGID_11_);}
	.st15{fill:url(#SVGID_12_);}
	.st16{fill:url(#SVGID_13_);}
	.st17{fill:url(#SVGID_14_);}
	.st18{fill:url(#SVGID_15_);}
	.st19{fill:url(#SVGID_16_);}
</style>
<g>
	<path class="st11" d="M14.22,79.89c-0.3-0.15-0.59-0.31-0.89-0.45c-1.11-0.51-2.16-1.12-3.1-1.89c-1.31-1.08-2.22-2.44-2.8-4.03
		c-0.7-1.94-0.89-3.94-0.81-5.98c0.09-2.31,0.87-4.39,2.11-6.31c0.81-1.26,1.77-2.4,2.77-3.52c3.19-3.57,6.17-7.3,9.03-11.14
		c0.94-1.25,1.94-2.45,3.11-3.5c1.61-1.46,3.44-2.51,5.59-2.93c2.26-0.44,4.5-0.33,6.68,0.45c1.8,0.64,3.28,1.75,4.48,3.23
		c0.86,1.05,1.58,2.2,2.32,3.33c0.92,1.38,1.84,2.76,2.9,4.03c1.35,1.61,2.91,2.97,4.76,3.99c0.76,0.42,1.54,0.81,2.26,1.28
		c2.82,1.85,4.68,4.41,5.57,7.66c0.35,1.27,0.66,2.56,0.83,3.87c0.1,0.77,0.2,1.54,0.08,2.32c-0.03,0.19-0.05,0.38-0.08,0.57
		c-0.07,0.22-0.15,0.44-0.22,0.66c-0.05,0.08-0.11,0.15-0.15,0.23c-0.22,0.6-0.58,1.11-0.98,1.59c-1.22,1.48-2.71,2.63-4.46,3.41
		c-1.45,0.65-2.95,1.11-4.54,1.2c-1.02,0.06-2.03-0.07-3.04-0.2c-2.86-0.39-5.71-0.77-8.57-1.16c-2.21-0.3-4.41-0.22-6.59,0.27
		c-1.78,0.4-3.42,1.13-4.98,2.07c-2.87,1.73-5.94,2.26-9.22,1.53c-0.25-0.05-0.5-0.08-0.74-0.13C15.1,80.19,14.66,80.04,14.22,79.89
		z"/>
	<path class="st11" d="M4.86,24.67c0.08-0.09,0.18-0.18,0.23-0.28c0.39-0.75,0.76-1.51,1.15-2.26c0.09-0.17,0.22-0.32,0.37-0.45
		c0.19-0.17,0.35-0.15,0.5,0.05c0.08,0.11,0.14,0.24,0.2,0.36c0.75,1.54,1.24,3.17,1.63,4.83c0.09,0.39,0,0.59-0.37,0.76
		C7.44,28.21,6.26,28.43,5,28.21c-0.53-0.09-0.73-0.29-0.65-0.83c0.08-0.62,0.24-1.22,0.36-1.84c0.05-0.25,0.07-0.49,0.11-0.74
		C4.83,24.76,4.85,24.72,4.86,24.67z"/>
	<path class="st11" d="M35.08,0.09c0.12,0.09,0.24,0.18,0.36,0.26c1.29,0.89,2.4,1.96,3.28,3.26c0.12,0.17,0.22,0.36,0.3,0.55
		c0.09,0.22,0.03,0.35-0.19,0.45c-0.13,0.06-0.28,0.1-0.43,0.14c-0.65,0.15-1.31,0.1-1.96-0.01C36.23,4.7,36.01,4.65,35.8,4.6
		c-0.41-0.1-0.72-0.33-0.91-0.69c-0.54-1.02-0.78-2.1-0.65-3.25c0.01-0.06,0.03-0.11,0.04-0.17C34.34,0.2,34.5,0.01,34.82,0
		C34.91,0.03,35,0.06,35.08,0.09z"/>
	<path class="st11" d="M64.59,46.55c-0.85,2.46-2.43,4.37-4.51,5.88c-0.99,0.72-2.1,1.21-3.29,1.52c-2.02,0.52-3.95,0.28-5.8-0.65
		c-1.52-0.76-2.81-1.78-3.81-3.16c-1.37-1.88-1.86-3.98-1.54-6.28c0.27-1.9,0.74-3.75,1.33-5.57c0.55-1.7,1.15-3.38,1.72-5.07
		c0.58-1.72,1.38-3.34,2.36-4.86c0.37-0.57,0.76-1.13,1.18-1.67c0.88-1.12,2.03-1.42,3.38-1.06c1.35,0.37,2.54,1.02,3.46,2.09
		c1.05,1.22,2.1,2.45,2.98,3.79c1.18,1.79,2.07,3.72,2.74,5.76c0.38,1.16,0.56,2.36,0.56,3.59c0,1.75-0.1,3.5-0.59,5.19
		C64.7,46.22,64.64,46.38,64.59,46.55z"/>
	<path class="st11" d="M47.87,27.39c-1.27,3.01-3.33,5.39-6.57,6.58c-1.69,0.62-3.38,0.56-5.04-0.17c-1.63-0.72-2.76-1.95-3.57-3.51
		c-0.88-1.69-1.19-3.5-1.17-5.38c0.03-3.48,0.08-6.97,0.13-10.45c0.02-1.37,0.06-2.73,0.11-4.1c0.02-0.59,0.13-1.17,0.32-1.74
		c0.32-0.93,0.86-1.68,1.73-2.17c1.06-0.6,2.17-0.93,3.39-0.68c0.54,0.11,1.04,0.31,1.53,0.56c0.81,0.4,1.59,0.85,2.29,1.43
		c0.44,0.36,0.83,0.77,1.18,1.22c1.1,1.45,1.99,3.02,2.81,4.63c0.99,1.94,1.83,3.95,2.52,6.02c0.59,1.75,0.9,3.54,0.78,5.4
		c-0.03,0.4-0.08,0.81-0.16,1.2C48.11,26.59,48,26.93,47.87,27.39z"/>
	<path class="st11" d="M27.98,29.56c-0.4,1.23-1.05,2.27-2.03,3.08c-1.48,1.23-3.18,1.64-5.07,1.32c-2.08-0.36-3.78-1.42-5.24-2.88
		c-2.51-2.5-3.77-5.59-4.03-9.1c-0.14-1.82,0.1-3.61,0.71-5.33c0.39-1.11,0.92-2.16,1.68-3.06c1.26-1.5,2.54-2.98,3.83-4.44
		c0.68-0.77,1.45-1.43,2.31-1.99c0.49-0.32,0.99-0.6,1.55-0.78c1.33-0.44,2.47-0.07,3.31,1.06c0.42,0.57,0.69,1.2,0.92,1.86
		c0.16,0.45,0.31,0.9,0.42,1.36c0.74,3.04,1.41,6.09,1.88,9.19c0.36,2.39,0.47,4.79,0.27,7.2C28.41,27.91,28.26,28.76,27.98,29.56z"
		/>
	<path class="st11" d="M1.3,36.74c0.53-1.62,1.56-3.56,2.8-5.4c0.3-0.44,0.6-0.88,0.92-1.3c0.27-0.36,0.59-0.66,0.98-0.87
		c1.03-0.56,2.05-0.48,3.03,0.13c0.79,0.49,1.49,1.09,2.15,1.75c1.56,1.54,2.98,3.21,4.21,5.03c0.36,0.54,0.72,1.1,0.94,1.7
		c0.45,1.25,0.97,2.48,1.26,3.79c0.33,1.48,0.46,2.97,0.2,4.48c-0.39,2.24-1.41,4.15-3.04,5.73c-1.12,1.09-2.38,1.96-3.87,2.46
		c-1.94,0.66-3.81,0.48-5.6-0.52c-0.57-0.32-1.17-0.62-1.7-1c-1.34-0.98-2.22-2.31-2.78-3.86C0.21,47.24,0.01,45.57,0,43.87
		C-0.02,41.58,0.39,39.37,1.3,36.74z"/>
	<path class="st11" d="M52.82,20.03c0.21-0.65,0.38-0.71,0.92-0.34c1.08,0.75,1.93,1.72,2.69,2.77c0.22,0.31,0.43,0.63,0.63,0.96
		c0.21,0.35,0.14,0.53-0.25,0.64c-0.24,0.07-0.5,0.12-0.75,0.15c-0.98,0.13-1.96,0.09-2.94,0c-0.4-0.04-0.53-0.17-0.58-0.57
		C52.39,22.42,52.49,21.21,52.82,20.03z"/>
	<path class="st11" d="M21.22,5.22c-0.23-0.08-0.29-0.19-0.25-0.41c0.02-0.08,0.04-0.16,0.08-0.23c0.65-1.13,1.3-2.27,1.97-3.39
		c0.17-0.29,0.39-0.54,0.59-0.81c0.07-0.09,0.15-0.18,0.24-0.25c0.19-0.15,0.34-0.13,0.47,0.07c0.07,0.11,0.12,0.23,0.16,0.35
		c0.26,0.88,0.55,1.75,0.76,2.64c0.11,0.45,0.08,0.94,0.1,1.41c0.01,0.28-0.17,0.45-0.42,0.52c-0.2,0.06-0.41,0.09-0.61,0.12
		c-0.96,0.14-1.91,0.13-2.87,0.03C21.35,5.25,21.27,5.23,21.22,5.22z"/>
</g>
</svg>
